<svg width="487" height="487" viewBox="0 0 487 487" fill="none" xmlns="http://www.w3.org/2000/svg">
<path d="M152.54 469.01C180.57 480.28 211.18 486.5 243.24 486.5C269.73 486.5 295.22 482.25 319.09 474.43L152.55 143.45V469.01H152.54Z" fill="#F06426"/>
<path d="M0 243.25C0 310.61 27.38 371.57 71.62 415.63V70.8701C27.38 114.93 0 175.89 0 243.25Z" fill="#B13F25"/>
<path d="M333.92 17.48C305.89 6.21 275.3 0 243.24 0C216.75 0 191.26 4.25 167.38 12.08L333.92 343.05V17.48Z" fill="#F06426"/>
<path d="M414.87 171.53H475.68C463.83 133.03 442.71 98.5999 414.87 70.8799V171.53Z" fill="#30A9E0"/>
<path d="M414.87 350.63V415.62C459.11 371.57 486.5 310.61 486.5 243.25C486.5 237.83 486.26 232.45 485.91 227.12C485.75 224.64 485.44 222.21 485.21 219.75H414.87V350.62V350.63Z" fill="#1C76BC"/>
</svg>
