<?xml version="1.0" encoding="UTF-8"?>
<svg id="Layer_1" data-name="Layer 1" xmlns="http://www.w3.org/2000/svg" viewBox="0 0 511.52 511.52">
  <defs>
    <style>
      .cls-1 {
        fill: #d41f37;
      }

      .cls-2 {
        stroke-linejoin: round;
      }

      .cls-2, .cls-3 {
        stroke-width: .5px;
      }

      .cls-2, .cls-3, .cls-4, .cls-5 {
        fill: none;
      }

      .cls-2, .cls-4 {
        stroke: #937639;
      }

      .cls-6 {
        fill: #2158a8;
      }

      .cls-7 {
        fill: #f5e400;
      }

      .cls-7, .cls-8, .cls-9, .cls-10 {
        fill-rule: evenodd;
      }

      .cls-3 {
        stroke: #002444;
      }

      .cls-3, .cls-4, .cls-5 {
        stroke-miterlimit: 2.61;
      }

      .cls-11 {
        fill: #a77956;
      }

      .cls-8, .cls-12 {
        fill: #dab978;
      }

      .cls-13 {
        fill: #c69232;
      }

      .cls-14 {
        fill: #002d5b;
      }

      .cls-4, .cls-5 {
        stroke-width: 1.42px;
      }

      .cls-9 {
        fill: #e1251b;
      }

      .cls-10 {
        fill: #0034ad;
      }

      .cls-15 {
        fill: #f1d229;
      }

      .cls-16 {
        fill: #cc1f3d;
      }

      .cls-17 {
        fill: #ffd126;
      }

      .cls-18 {
        fill: #127c5b;
      }

      .cls-5 {
        stroke: #c69232;
      }
    </style>
  </defs>
  <polygon class="cls-8" points="297.72 78.62 309.13 58.2 319.87 38.99 347.97 33.17 360.6 55.05 349.87 74.26 338.15 95.24 297.72 78.62"/>
  <polygon class="cls-2" points="297.72 78.62 309.13 58.2 319.87 38.99 347.97 33.17 360.6 55.05 349.87 74.26 338.15 95.24 297.72 78.62"/>
  <polygon class="cls-8" points="393.17 118.35 405.66 105.86 436.43 75.09 385.97 60.2 367.71 92.88 393.17 118.35"/>
  <polygon class="cls-2" points="393.17 118.35 405.66 105.86 436.43 75.09 385.97 60.2 367.71 92.88 393.17 118.35"/>
  <polygon class="cls-8" points="349.59 74.76 371.62 35.34 385.97 60.2 367.71 92.88 349.59 74.76"/>
  <polygon class="cls-2" points="349.59 74.76 371.62 35.34 385.97 60.2 367.71 92.88 349.59 74.76"/>
  <polygon class="cls-8" points="432.9 213.8 453.32 202.39 472.53 191.65 478.35 163.55 456.47 150.92 437.26 161.65 416.28 173.37 432.9 213.8"/>
  <polygon class="cls-2" points="432.9 213.8 453.32 202.39 472.53 191.65 478.35 163.55 456.47 150.92 437.26 161.65 416.28 173.37 432.9 213.8"/>
  <polygon class="cls-8" points="393.17 118.35 405.66 105.86 436.43 75.09 451.32 125.55 418.64 143.81 393.17 118.35"/>
  <polygon class="cls-2" points="393.17 118.35 405.66 105.86 436.43 75.09 451.32 125.55 418.64 143.81 393.17 118.35"/>
  <polygon class="cls-8" points="436.76 161.93 476.18 139.9 451.32 125.55 418.64 143.81 436.76 161.93"/>
  <polygon class="cls-2" points="436.76 161.93 476.18 139.9 451.32 125.55 418.64 143.81 436.76 161.93"/>
  <polygon class="cls-8" points="78.62 213.8 58.2 202.39 38.99 191.65 33.17 163.55 55.05 150.92 74.26 161.65 95.24 173.37 78.62 213.8"/>
  <polygon class="cls-2" points="78.62 213.8 58.2 202.39 38.99 191.65 33.17 163.55 55.05 150.92 74.26 161.65 95.24 173.37 78.62 213.8"/>
  <polygon class="cls-8" points="118.35 118.35 105.86 105.86 75.09 75.09 60.2 125.55 92.88 143.81 118.35 118.35"/>
  <polygon class="cls-2" points="118.35 118.35 105.86 105.86 75.09 75.09 60.2 125.55 92.88 143.81 118.35 118.35"/>
  <polygon class="cls-8" points="74.76 161.93 35.34 139.9 60.2 125.55 92.88 143.81 74.76 161.93"/>
  <polygon class="cls-2" points="74.76 161.93 35.34 139.9 60.2 125.55 92.88 143.81 74.76 161.93"/>
  <polygon class="cls-8" points="213.8 78.62 202.39 58.2 191.65 38.99 163.55 33.17 150.92 55.05 161.65 74.26 173.37 95.24 213.8 78.62"/>
  <polygon class="cls-2" points="213.8 78.62 202.39 58.2 191.65 38.99 163.55 33.17 150.92 55.05 161.65 74.26 173.37 95.24 213.8 78.62"/>
  <polygon class="cls-8" points="118.35 118.35 105.86 105.86 75.09 75.09 125.55 60.2 143.81 92.88 118.35 118.35"/>
  <polygon class="cls-2" points="118.35 118.35 105.86 105.86 75.09 75.09 125.55 60.2 143.81 92.88 118.35 118.35"/>
  <polygon class="cls-8" points="161.93 74.76 139.9 35.34 125.55 60.2 143.81 92.88 161.93 74.76"/>
  <polygon class="cls-2" points="161.93 74.76 139.9 35.34 125.55 60.2 143.81 92.88 161.93 74.76"/>
  <polygon class="cls-8" points="255.76 61.43 255.76 43.76 255.76 .25 209.55 25.41 219.75 61.43 255.76 61.43"/>
  <polygon class="cls-2" points="255.76 61.43 255.76 43.76 255.76 .25 209.55 25.41 219.75 61.43 255.76 61.43"/>
  <polygon class="cls-8" points="194.12 61.43 181.82 17.98 209.55 25.41 219.75 61.43 194.12 61.43"/>
  <polygon class="cls-2" points="194.12 61.43 181.82 17.98 209.55 25.41 219.75 61.43 194.12 61.43"/>
  <polygon class="cls-8" points="255.76 61.43 255.76 43.76 255.76 .25 301.97 25.41 291.77 61.43 255.76 61.43"/>
  <polygon class="cls-2" points="255.76 61.43 255.76 43.76 255.76 .25 301.97 25.41 291.77 61.43 255.76 61.43"/>
  <polygon class="cls-8" points="317.4 61.43 329.7 17.98 301.97 25.41 291.77 61.43 317.4 61.43"/>
  <polygon class="cls-2" points="317.4 61.43 329.7 17.98 301.97 25.41 291.77 61.43 317.4 61.43"/>
  <polygon class="cls-8" points="450.09 255.76 467.76 255.76 511.27 255.76 486.11 209.55 450.09 219.75 450.09 255.76"/>
  <polygon class="cls-2" points="450.09 255.76 467.76 255.76 511.27 255.76 486.11 209.55 450.09 219.75 450.09 255.76"/>
  <polygon class="cls-8" points="450.09 194.12 493.54 181.82 486.11 209.55 450.09 219.75 450.09 194.12"/>
  <polygon class="cls-2" points="450.09 194.12 493.54 181.82 486.11 209.55 450.09 219.75 450.09 194.12"/>
  <polygon class="cls-8" points="410.69 351.34 433.2 357.72 454.37 363.71 478.35 347.95 471.82 323.55 450.65 317.55 427.53 311.01 410.69 351.34"/>
  <polygon class="cls-2" points="410.69 351.34 433.2 357.72 454.37 363.71 478.35 347.95 471.82 323.55 450.65 317.55 427.53 311.01 410.69 351.34"/>
  <polygon class="cls-8" points="450.09 255.76 467.76 255.76 511.27 255.76 486.11 301.97 450.09 291.77 450.09 255.76"/>
  <polygon class="cls-2" points="450.09 255.76 467.76 255.76 511.27 255.76 486.11 301.97 450.09 291.77 450.09 255.76"/>
  <polygon class="cls-8" points="450.09 317.4 493.54 329.7 486.11 301.97 450.09 291.77 450.09 317.4"/>
  <polygon class="cls-2" points="450.09 317.4 493.54 329.7 486.11 301.97 450.09 291.77 450.09 317.4"/>
  <polygon class="cls-8" points="393.17 393.17 405.66 405.66 436.43 436.43 451.32 385.97 418.64 367.71 393.17 393.17"/>
  <polygon class="cls-2" points="393.17 393.17 405.66 405.66 436.43 436.43 451.32 385.97 418.64 367.71 393.17 393.17"/>
  <polygon class="cls-8" points="436.76 349.59 476.18 371.62 451.32 385.97 418.64 367.71 436.76 349.59"/>
  <polygon class="cls-2" points="436.76 349.59 476.18 371.62 451.32 385.97 418.64 367.71 436.76 349.59"/>
  <polygon class="cls-8" points="297.72 432.9 309.13 453.32 319.87 472.53 347.97 478.35 360.6 456.47 349.87 437.26 338.15 416.28 297.72 432.9"/>
  <polygon class="cls-2" points="297.72 432.9 309.13 453.32 319.87 472.53 347.97 478.35 360.6 456.47 349.87 437.26 338.15 416.28 297.72 432.9"/>
  <polygon class="cls-8" points="393.17 393.17 405.66 405.66 436.43 436.43 385.97 451.32 367.71 418.64 393.17 393.17"/>
  <polygon class="cls-2" points="393.17 393.17 405.66 405.66 436.43 436.43 385.97 451.32 367.71 418.64 393.17 393.17"/>
  <polygon class="cls-8" points="349.59 436.76 371.62 476.18 385.97 451.32 367.71 418.64 349.59 436.76"/>
  <polygon class="cls-2" points="349.59 436.76 371.62 476.18 385.97 451.32 367.71 418.64 349.59 436.76"/>
  <polygon class="cls-8" points="255.76 450.09 255.76 467.76 255.76 511.27 301.97 486.11 291.77 450.09 255.76 450.09"/>
  <polygon class="cls-2" points="255.76 450.09 255.76 467.76 255.76 511.27 301.97 486.11 291.77 450.09 255.76 450.09"/>
  <polygon class="cls-8" points="317.4 450.09 329.7 493.54 301.97 486.11 291.77 450.09 317.4 450.09"/>
  <polygon class="cls-2" points="317.4 450.09 329.7 493.54 301.97 486.11 291.77 450.09 317.4 450.09"/>
  <polygon class="cls-8" points="160.18 410.69 153.8 433.2 147.81 454.37 163.57 478.35 187.97 471.82 193.97 450.65 200.51 427.53 160.18 410.69"/>
  <polygon class="cls-2" points="160.18 410.69 153.8 433.2 147.81 454.37 163.57 478.35 187.97 471.82 193.97 450.65 200.51 427.53 160.18 410.69"/>
  <polygon class="cls-8" points="255.76 450.09 255.76 467.76 255.76 511.27 209.55 486.11 219.75 450.09 255.76 450.09"/>
  <polygon class="cls-2" points="255.76 450.09 255.76 467.76 255.76 511.27 209.55 486.11 219.75 450.09 255.76 450.09"/>
  <polygon class="cls-8" points="194.12 450.09 181.82 493.54 209.55 486.11 219.75 450.09 194.12 450.09"/>
  <polygon class="cls-2" points="194.12 450.09 181.82 493.54 209.55 486.11 219.75 450.09 194.12 450.09"/>
  <polygon class="cls-8" points="118.35 393.17 105.86 405.66 75.09 436.43 125.55 451.32 143.81 418.64 118.35 393.17"/>
  <polygon class="cls-2" points="118.35 393.17 105.86 405.66 75.09 436.43 125.55 451.32 143.81 418.64 118.35 393.17"/>
  <polygon class="cls-8" points="161.93 436.76 139.9 476.18 125.55 451.32 143.81 418.64 161.93 436.76"/>
  <polygon class="cls-2" points="161.93 436.76 139.9 476.18 125.55 451.32 143.81 418.64 161.93 436.76"/>
  <polygon class="cls-8" points="78.62 297.72 58.2 309.13 38.99 319.87 33.17 347.97 55.05 360.6 74.26 349.87 95.24 338.15 78.62 297.72"/>
  <polygon class="cls-2" points="78.62 297.72 58.2 309.13 38.99 319.87 33.17 347.97 55.05 360.6 74.26 349.87 95.24 338.15 78.62 297.72"/>
  <polygon class="cls-8" points="118.35 393.17 105.86 405.66 75.09 436.43 60.2 385.97 92.88 367.71 118.35 393.17"/>
  <polygon class="cls-2" points="118.35 393.17 105.86 405.66 75.09 436.43 60.2 385.97 92.88 367.71 118.35 393.17"/>
  <polygon class="cls-8" points="74.76 349.59 35.34 371.62 60.2 385.97 92.88 367.71 74.76 349.59"/>
  <polygon class="cls-2" points="74.76 349.59 35.34 371.62 60.2 385.97 92.88 367.71 74.76 349.59"/>
  <polygon class="cls-8" points="61.43 255.76 43.76 255.76 .25 255.76 25.41 301.97 61.43 291.77 61.43 255.76"/>
  <polygon class="cls-2" points="61.43 255.76 43.76 255.76 .25 255.76 25.41 301.97 61.43 291.77 61.43 255.76"/>
  <polygon class="cls-8" points="61.43 317.4 17.98 329.7 25.41 301.97 61.43 291.77 61.43 317.4"/>
  <polygon class="cls-2" points="61.43 317.4 17.98 329.7 25.41 301.97 61.43 291.77 61.43 317.4"/>
  <polygon class="cls-8" points="61.43 255.76 43.76 255.76 .25 255.76 25.41 209.55 61.43 219.75 61.43 255.76"/>
  <polygon class="cls-2" points="61.43 255.76 43.76 255.76 .25 255.76 25.41 209.55 61.43 219.75 61.43 255.76"/>
  <polygon class="cls-8" points="61.43 194.12 17.98 181.82 25.41 209.55 61.43 219.75 61.43 194.12"/>
  <polygon class="cls-2" points="61.43 194.12 17.98 181.82 25.41 209.55 61.43 219.75 61.43 194.12"/>
  <circle class="cls-14" cx="255.76" cy="255.76" r="221.59"/>
  <circle class="cls-4" cx="255.76" cy="255.76" r="221.59"/>
  <path class="cls-5" d="M255.76,98.19c87.03,0,157.57,70.55,157.57,157.57s-70.55,157.57-157.57,157.57-157.57-70.55-157.57-157.57S168.74,98.19,255.76,98.19ZM255.76,47.19c115.19,0,208.57,93.38,208.57,208.57s-93.38,208.56-208.57,208.56S47.19,370.95,47.19,255.76,140.57,47.19,255.76,47.19Z"/>
  <path class="cls-7" d="M315.42,455.65c-18.9,5.63-38.93,8.67-59.66,8.67s-40.76-3.04-59.66-8.67l21.91-46.88c12.09,2.97,24.73,4.56,37.75,4.56s25.65-1.59,37.75-4.56l21.91,46.88Z"/>
  <path class="cls-5" d="M315.42,455.65c-18.9,5.63-38.93,8.67-59.66,8.67s-40.76-3.04-59.66-8.67l21.91-46.88c12.09,2.97,24.73,4.56,37.75,4.56s25.65-1.59,37.75-4.56l21.91,46.88Z"/>
  <path class="cls-13" d="M203.01,233.48c.55-.49,1.11-.96,1.7-1.41.78-.5.69-1.51.49-2.29-1.95-.24-3.78,1.49-3.83,3.4.04.84,1.2.85,1.64.3ZM230.66,208.87c1.87.24,3.39-1.35,4.03-2.96-1-1.37-2.77-.22-3.76.57-.6.53-1.36,1.99-.27,2.39ZM171.88,155.31s11.82,1.7,13.22,16.34c.75-.69,2.09-7.39-2.12-12.79-4.21-5.41-11.16-4.41-11.1-3.55ZM184.12,155.38c2.17,1.17,4.04,5.55,4.59,7.84.62,2.61.59,5.39-.15,7.97-.4,1.43-.99,2.92-.67,4.43.38,1.49,1.11,2.85,1.97,4.11,3.95,4.32,7.63,8.88,11.47,13.29,10.45,12.32,20.99,24.58,31.45,36.89,1.55,1.88,3.27,3.63,4.58,5.68,4.76-3.04,7.89-8.22,8.9-13.73.78-4.28.13-8.91-4.24-10.94-4.79-2.22-7.67,5.63-12.96,5.81-1.84.1-3.65-.96-4.51-2.58-.79-1.66-.52-3.6.12-5.25,1.04-2.32,2.72-4.36,4.73-5.91,6.36-4.6,16.02-4.61,21.94.77,3.96,3.51,5.91,8.84,6,14.05.12,4.71-1.2,9.37-3.27,13.57-1.64.52-3.42.35-5.1.74-3.08.68-6.13,1.54-9,2.86-3.41,1.64-6.7,3.49-10.08,5.18-15.05-18.17-31.17-36.25-46.61-54.11-.18-.24-.55-.72-.73-.95-1.07-1-2.34-1.78-3.75-2.18-2.08-.68-4.23.22-6.36.07-7.5.03-14.29-6.33-15.03-13.75-1.74-13.5,13.18-22.36,24.01-15.9.93.55,1.84,1.23,2.7,2.02ZM308.6,343.57c-2.7-2.83-3.86-6.84-3.68-10.69,3.08-.26,6.15-.68,9.24-.74,1.18.02,2.61-.08,3.49.87l2.89,3.42,20.33,26.58c.18.24.14.58-.09.76-.22.19-.56.17-.76-.04l-21.02-22.07c-2.05-1.86-3.9-3.92-5.61-6.1-.49-.51-1.03-.98-1.64-1.34-.36,2.45.18,5.06,1.75,7.02,1.76,2.23,4.09,4.16,6.86,4.99-4.03,1.12-8.72.37-11.75-2.65ZM203.59,164.83c-1.85-12.2,14.33-17.43,23.67-17.2,4.69-.03,9.3.82,13.91,1.53,7.22,1.4,14.52,2.59,21.89,2.63,5.21.12,10.49-.35,15.47-1.97,1.49-.43,2.93-1.03,4.39-1.54-1.32,2.37-2.77,4.72-4.75,6.58-5.03,4.88-11.93,7.26-18.74,8.3-5.9,1.04-11.93.83-17.86.17-6.16-.69-12.18-2.47-18.41-2.52-.84,0-1.67.21-2.47.43.51,1.87,1.25,3.67,1.67,5.57,1.41,5.97.84,12.58-2.33,17.91-.9,1.6-2.21,2.92-3.08,4.53-.31.46.2,1.06.7.82,2.57-.68,3.93-3.2,5.43-5.18,4-6.12,4.15-14.12,1.85-20.88,11.67,3.19,24.06,4.4,36.01,2.19,2.05-.34,4.01-1.02,6.05-1.41-1.95,2.53-4.58,4.44-7.35,6-4.33,2.53-9.23,3.97-14.2,4.44-3.85.37-7.73.5-11.59.13-1.65-.07-3.29-.49-4.94-.24-.1.73-.17,1.47-.18,2.21,7.6,1.93,15.76,2.05,23.29-.23.36-.09.73-.09,1.1,0-2.87,3.99-6.92,7.08-11.55,8.74-3.74,1.46-7.77,1.81-11.73,2.24-1.52.18-3.07.1-4.57.46-.86.23-.69,1.22-.8,1.89,3.18,1.47,6.81.74,10.19,1.01-.36.35-.72.7-1.08,1.04-.94,1.31-2.11,2.53-3.63,3.16-3.78,2.72-8.6,2.25-12.98,2.58-1.8.06-3.52.73-4.91,1.86-2.33-2.54-4.45-5.26-6.73-7.84,2.29-2.22,3.77-5.22,3.97-8.42.32-3.85-.62-7.71-2.25-11.19-1.08-2.64-3.09-4.91-3.46-7.82ZM147.15,210.1c3.1-7.86,12.01-17.86,21.39-12.09,2.59,1.8,4.99,3.91,7.85,5.31,3.57,1.8,7.71,2.83,11.68,1.97,1.78-.37,3.35-1.34,4.74-2.49,2.29,2.59,4.53,5.24,6.8,7.86-1.23,1.19-2.29,2.61-2.6,4.34-1.03,4.37-1.23,9.35-4.61,12.72-.83,1.24-1.96,2.29-3.35,2.89-.48.36-.98.66-1.49.99.4-2.72.87-5.44.95-8.19-.01-.79.03-1.95-.98-2.12-1.15-.18-1.35,1.13-1.59,1.95-1.31,5.64-2.58,11.5-6.01,16.3-2.47,3.35-5.56,6.45-9.45,8.07.13-.86.54-1.63.89-2.42,2.64-6.49,3.99-13.58,3.33-20.59-.08-1.22-1.54-1.37-2.66-.96-.2,6.64-.9,13.36-3.27,19.61-1.37,4.04-3.47,7.9-6.41,11.02-1.4,1.8-3.13,3.42-5.14,4.5-.23.16-.7.48-.92.64,1.73-3.9,3.31-7.9,4.23-12.08,2.1-7.95,2.44-16.26,1.96-24.43-.07-1.64-.46-3.27-.34-4.91,4.93,2.46,10.66,3.67,16.14,2.76,3.13-.51,6.05-1.92,8.62-3.74,1.03-.83,2.29-1.83,2.24-3.3-.78-.07-1.56.06-2.18.55-3.46,2.21-7.55,3.51-11.68,3.36-5.02-.09-9.89-1.75-14.29-4.11-.66-.53-1.45.12-1.61.82-.67,2.44-.63,4.99-.68,7.51-.08,3.78.2,7.55.07,11.32-.26,5.75-.79,11.55-2.41,17.1-.99,3.17-2.17,6.3-3.7,9.26-1.48,2.88-3.55,5.42-5.86,7.67-2.34,2.24-5.28,3.71-8.22,4.99-.34.12-.69.18-1.05.19,3.96-6.39,5.72-13.84,6.67-21.22.1-2.04.23-4.08.5-6.1.61-6.99-.28-14.01.02-21.01.18-4.71.82-9.46,2.41-13.92ZM194.82,238.59c.61-6.29,5.08-12.36,11.33-13.98,1.91-.47,4.14-.43,5.75.85,3.75,2.6.53,8.04-2.53,9.99-1,.81-2.03,1.58-2.94,2.49-1.01,1.48-1.41,3.51-.59,5.17.71,1.64,2.25,2.73,3.82,3.46,3.22,1.39,6.87,1.51,10.28.79,2.44-.47,4.85-1.13,7.15-2.06,3.99-1.63,7.64-3.94,11.42-5.98,6.01-3.2,12.97-4.92,19.78-3.96,3.69.51,7.34,1.86,10.16,4.36,3.54,3.04,6,7.39,6.5,12.05.52,4.15.03,8.41-1.16,12.4-3.57.46-7.13.96-10.65,1.71-3.28.56-6.52,1.4-9.84,1.69-1.66-1.25-2.81-3.02-4.17-4.56-2.27-2.62-4.54-5.25-6.83-7.86-.96.58-1.8,1.32-2.52,2.18-.72,2.06-1.46,4.23-1.14,6.43.16,2.59,2.05,4.84,4.37,5.86,2.53,1.21,5.4,1.46,8.17,1.38,3.07-.21,6.14-.53,9.16-1.13,3.8-.83,7.61-1.64,11.46-2.13,4.97-.78,10.28-.86,14.97,1.17,4.26,1.78,7.62,5.43,9.4,9.65,2.03,5.11,1.58,10.81.19,16.02-1.69.22-3.4.14-5.1.3-3.72.24-7.39.86-11.1,1.08-.95,0-2.17.16-2.76-.77-3.02-3.51-5.98-7.06-9.06-10.5-1.34,1.12-1.69,2.95-1.89,4.6-.25,2.68.39,5.7,2.63,7.43,2.86,2.34,6.75,2.55,10.28,2.35,6.25-.26,12.44-1.5,18.71-1.37,4.87.18,9.81,2.21,12.88,6.11,3.88,4.55,4.31,11.11,2.62,16.65-3.42-.28-6.83.15-10.24.21-1.88.06-3.85-.39-5.35-1.58-1.59-1.6-2.96-3.4-4.47-5.07-.27-.41-.72-.57-1.18-.63-1.36,9.08,7,10.3,14.26,10.12,4.85-.18,9.94-.79,14.53,1.21,3.9,1.56,7.01,5.37,7.23,9.64.16,2.07-.33,4.13-1.12,6.04-1.99-8.9-8.17-11.3-16.81-10.91-3.85.36-7.71.75-11.58.59-4.52-.4-11.88-3.19-13.8-7.97-2.07-3.01-2.82-6.78-2.76-10.38,2.48-.4,4.99-.53,7.48-.86,3.09-.31,6.25-.87,9.35-.2,1.24.28,2.03,1.35,2.84,2.24,1.55,1.84,3.06,3.72,4.73,5.45,1.7-4.31-1.12-9.77-5.58-10.78-3.4-.84-6.91-.27-10.33.09-5.7.6-11.41,1.73-17.16,1.2-5.29-.42-10.71-2.5-14.08-6.76-4.29-4.82-5.25-10.63-4.51-16.81,6.55-.67,14.34-4.24,21.22-3.85,3.43,3.65,6.53,7.61,9.86,11.36,1.63-3.18,1.73-7.2.1-10.4-.77-.94-1.56-1.85-2.39-2.74-2.65-1.74-5.93-1.96-9-1.71-8.43.62-16.52,3.51-24.97,3.9-5.27.22-10.75-.9-15.03-4.09-5.1-4.01-7.01-7.44-7.73-14.15-.11-1.18-.16-2.38.04-3.56,7.96-1.75,14.4-7.25,22.01-9.95l.11.13.26-.25c3.81,4.48,7.7,8.9,11.45,13.43l.18.12c1.94-2.29,2.67-5.42,2.69-8.37.17-6.11-6.12-9.91-11.89-8.92-7.17.91-13.09,5.4-19.53,8.29-6.47,3.02-13.68,4.94-20.86,4.04-5.1-.58-10.16-2.91-13.39-6.99-2.4-2.79-3.76-6.53-3.59-10.22-.14-.93-.07-1.88.24-2.76Z"/>
  <path class="cls-3" d="M203.01,233.48c.55-.49,1.11-.96,1.7-1.41.78-.5.69-1.51.49-2.29-1.95-.24-3.78,1.49-3.83,3.4.04.84,1.2.85,1.64.3ZM230.66,208.87c1.87.24,3.39-1.35,4.03-2.96-1-1.37-2.77-.22-3.76.57-.6.53-1.36,1.99-.27,2.39ZM171.88,155.31s11.82,1.7,13.22,16.34c.75-.69,2.09-7.39-2.12-12.79-4.21-5.41-11.16-4.41-11.1-3.55ZM184.12,155.38c2.17,1.17,4.04,5.55,4.59,7.84.62,2.61.59,5.39-.15,7.97-.4,1.43-.99,2.92-.67,4.43.38,1.49,1.11,2.85,1.97,4.11,3.95,4.32,7.63,8.88,11.47,13.29,10.45,12.32,20.99,24.58,31.45,36.89,1.55,1.88,3.27,3.63,4.58,5.68,4.76-3.04,7.89-8.22,8.9-13.73.78-4.28.13-8.91-4.24-10.94-4.79-2.22-7.67,5.63-12.96,5.81-1.84.1-3.65-.96-4.51-2.58-.79-1.66-.52-3.6.12-5.25,1.04-2.32,2.72-4.36,4.73-5.91,6.36-4.6,16.02-4.61,21.94.77,3.96,3.51,5.91,8.84,6,14.05.12,4.71-1.2,9.37-3.27,13.57-1.64.52-3.42.35-5.1.74-3.08.68-6.13,1.54-9,2.86-3.41,1.64-6.7,3.49-10.08,5.18-15.05-18.17-31.17-36.25-46.61-54.11-.18-.24-.55-.72-.73-.95-1.07-1-2.34-1.78-3.75-2.18-2.08-.68-4.23.22-6.36.07-7.5.03-14.29-6.33-15.03-13.75-1.74-13.5,13.18-22.36,24.01-15.9.93.55,1.84,1.23,2.7,2.02ZM308.6,343.57c-2.7-2.83-3.86-6.84-3.68-10.69,3.08-.26,6.15-.68,9.24-.74,1.18.02,2.61-.08,3.49.87l2.89,3.42,20.33,26.58c.18.24.14.58-.09.76-.22.19-.56.17-.76-.04l-21.02-22.07c-2.05-1.86-3.9-3.92-5.61-6.1-.49-.51-1.03-.98-1.64-1.34-.36,2.45.18,5.06,1.75,7.02,1.76,2.23,4.09,4.16,6.86,4.99-4.03,1.12-8.72.37-11.75-2.65ZM203.59,164.83c-1.85-12.2,14.33-17.43,23.67-17.2,4.69-.03,9.3.82,13.91,1.53,7.22,1.4,14.52,2.59,21.89,2.63,5.21.12,10.49-.35,15.47-1.97,1.49-.43,2.93-1.03,4.39-1.54-1.32,2.37-2.77,4.72-4.75,6.58-5.03,4.88-11.93,7.26-18.74,8.3-5.9,1.04-11.93.83-17.86.17-6.16-.69-12.18-2.47-18.41-2.52-.84,0-1.67.21-2.47.43.51,1.87,1.25,3.67,1.67,5.57,1.41,5.97.84,12.58-2.33,17.91-.9,1.6-2.21,2.92-3.08,4.53-.31.46.2,1.06.7.82,2.57-.68,3.93-3.2,5.43-5.18,4-6.12,4.15-14.12,1.85-20.88,11.67,3.19,24.06,4.4,36.01,2.19,2.05-.34,4.01-1.02,6.05-1.41-1.95,2.53-4.58,4.44-7.35,6-4.33,2.53-9.23,3.97-14.2,4.44-3.85.37-7.73.5-11.59.13-1.65-.07-3.29-.49-4.94-.24-.1.73-.17,1.47-.18,2.21,7.6,1.93,15.76,2.05,23.29-.23.36-.09.73-.09,1.1,0-2.87,3.99-6.92,7.08-11.55,8.74-3.74,1.46-7.77,1.81-11.73,2.24-1.52.18-3.07.1-4.57.46-.86.23-.69,1.22-.8,1.89,3.18,1.47,6.81.74,10.19,1.01-.36.35-.72.7-1.08,1.04-.94,1.31-2.11,2.53-3.63,3.16-3.78,2.72-8.6,2.25-12.98,2.58-1.8.06-3.52.73-4.91,1.86-2.33-2.54-4.45-5.26-6.73-7.84,2.29-2.22,3.77-5.22,3.97-8.42.32-3.85-.62-7.71-2.25-11.19-1.08-2.64-3.09-4.91-3.46-7.82ZM147.15,210.1c3.1-7.86,12.01-17.86,21.39-12.09,2.59,1.8,4.99,3.91,7.85,5.31,3.57,1.8,7.71,2.83,11.68,1.97,1.78-.37,3.35-1.34,4.74-2.49,2.29,2.59,4.53,5.24,6.8,7.86-1.23,1.19-2.29,2.61-2.6,4.34-1.03,4.37-1.23,9.35-4.61,12.72-.83,1.24-1.96,2.29-3.35,2.89-.48.36-.98.66-1.49.99.4-2.72.87-5.44.95-8.19-.01-.79.03-1.95-.98-2.12-1.15-.18-1.35,1.13-1.59,1.95-1.31,5.64-2.58,11.5-6.01,16.3-2.47,3.35-5.56,6.45-9.45,8.07.13-.86.54-1.63.89-2.42,2.64-6.49,3.99-13.58,3.33-20.59-.08-1.22-1.54-1.37-2.66-.96-.2,6.64-.9,13.36-3.27,19.61-1.37,4.04-3.47,7.9-6.41,11.02-1.4,1.8-3.13,3.42-5.14,4.5-.23.16-.7.48-.92.64,1.73-3.9,3.31-7.9,4.23-12.08,2.1-7.95,2.44-16.26,1.96-24.43-.07-1.64-.46-3.27-.34-4.91,4.93,2.46,10.66,3.67,16.14,2.76,3.13-.51,6.05-1.92,8.62-3.74,1.03-.83,2.29-1.83,2.24-3.3-.78-.07-1.56.06-2.18.55-3.46,2.21-7.55,3.51-11.68,3.36-5.02-.09-9.89-1.75-14.29-4.11-.66-.53-1.45.12-1.61.82-.67,2.44-.63,4.99-.68,7.51-.08,3.78.2,7.55.07,11.32-.26,5.75-.79,11.55-2.41,17.1-.99,3.17-2.17,6.3-3.7,9.26-1.48,2.88-3.55,5.42-5.86,7.67-2.34,2.24-5.28,3.71-8.22,4.99-.34.12-.69.18-1.05.19,3.96-6.39,5.72-13.84,6.67-21.22.1-2.04.23-4.08.5-6.1.61-6.99-.28-14.01.02-21.01.18-4.71.82-9.46,2.41-13.92ZM194.82,238.59c.61-6.29,5.08-12.36,11.33-13.98,1.91-.47,4.14-.43,5.75.85,3.75,2.6.53,8.04-2.53,9.99-1,.81-2.03,1.58-2.94,2.49-1.01,1.48-1.41,3.51-.59,5.17.71,1.64,2.25,2.73,3.82,3.46,3.22,1.39,6.87,1.51,10.28.79,2.44-.47,4.85-1.13,7.15-2.06,3.99-1.63,7.64-3.94,11.42-5.98,6.01-3.2,12.97-4.92,19.78-3.96,3.69.51,7.34,1.86,10.16,4.36,3.54,3.04,6,7.39,6.5,12.05.52,4.15.03,8.41-1.16,12.4-3.57.46-7.13.96-10.65,1.71-3.28.56-6.52,1.4-9.84,1.69-1.66-1.25-2.81-3.02-4.17-4.56-2.27-2.62-4.54-5.25-6.83-7.86-.96.58-1.8,1.32-2.52,2.18-.72,2.06-1.46,4.23-1.14,6.43.16,2.59,2.05,4.84,4.37,5.86,2.53,1.21,5.4,1.46,8.17,1.38,3.07-.21,6.14-.53,9.16-1.13,3.8-.83,7.61-1.64,11.46-2.13,4.97-.78,10.28-.86,14.97,1.17,4.26,1.78,7.62,5.43,9.4,9.65,2.03,5.11,1.58,10.81.19,16.02-1.69.22-3.4.14-5.1.3-3.72.24-7.39.86-11.1,1.08-.95,0-2.17.16-2.76-.77-3.02-3.51-5.98-7.06-9.06-10.5-1.34,1.12-1.69,2.95-1.89,4.6-.25,2.68.39,5.7,2.63,7.43,2.86,2.34,6.75,2.55,10.28,2.35,6.25-.26,12.44-1.5,18.71-1.37,4.87.18,9.81,2.21,12.88,6.11,3.88,4.55,4.31,11.11,2.62,16.65-3.42-.28-6.83.15-10.24.21-1.88.06-3.85-.39-5.35-1.58-1.59-1.6-2.96-3.4-4.47-5.07-.27-.41-.72-.57-1.18-.63-1.36,9.08,7,10.3,14.26,10.12,4.85-.18,9.94-.79,14.53,1.21,3.9,1.56,7.01,5.37,7.23,9.64.16,2.07-.33,4.13-1.12,6.04-1.99-8.9-8.17-11.3-16.81-10.91-3.85.36-7.71.75-11.58.59-4.52-.4-11.88-3.19-13.8-7.97-2.07-3.01-2.82-6.78-2.76-10.38,2.48-.4,4.99-.53,7.48-.86,3.09-.31,6.25-.87,9.35-.2,1.24.28,2.03,1.35,2.84,2.24,1.55,1.84,3.06,3.72,4.73,5.45,1.7-4.31-1.12-9.77-5.58-10.78-3.4-.84-6.91-.27-10.33.09-5.7.6-11.41,1.73-17.16,1.2-5.29-.42-10.71-2.5-14.08-6.76-4.29-4.82-5.25-10.63-4.51-16.81,6.55-.67,14.34-4.24,21.22-3.85,3.43,3.65,6.53,7.61,9.86,11.36,1.63-3.18,1.73-7.2.1-10.4-.77-.94-1.56-1.85-2.39-2.74-2.65-1.74-5.93-1.96-9-1.71-8.43.62-16.52,3.51-24.97,3.9-5.27.22-10.75-.9-15.03-4.09-5.1-4.01-7.01-7.44-7.73-14.15-.11-1.18-.16-2.38.04-3.56,7.96-1.75,14.4-7.25,22.01-9.95l.11.13.26-.25c3.81,4.48,7.7,8.9,11.45,13.43l.18.12c1.94-2.29,2.67-5.42,2.69-8.37.17-6.11-6.12-9.91-11.89-8.92-7.17.91-13.09,5.4-19.53,8.29-6.47,3.02-13.68,4.94-20.86,4.04-5.1-.58-10.16-2.91-13.39-6.99-2.4-2.79-3.76-6.53-3.59-10.22-.14-.93-.07-1.88.24-2.76Z"/>
  <path class="cls-13" d="M319.82,167.01c-1.59.54-3.15,1.51-3.92,3.07-2.01,3.68-1.32,8.19.42,11.83,2.12,3.97,5.62,7.55,10.18,8.44,1.33.1,2.66-.11,3.99-.21-.08,3.18.96,6.53,3.36,8.71,3.12,3.01,7.55,4.54,11.86,4.38,3.02-.01,5.9-1.81,7.47-4.35,1.18-2.05.87-4.53.43-6.74-1.47-5.08-5.04-9.84-10.13-11.68-1.72-.81-3.62-.61-5.38-.08.4-1.37.64-2.4.28-3.85-.74-2.47-1.97-4.9-4.08-6.48-3.95-3.32-9.56-4.38-14.5-3.03ZM356.72,152.45c-3.05.9-4,5.41-1.41,7.35,2.51,2.36,7.05.36,7.25-3,.23-3-3.03-5.39-5.84-4.36ZM350.95,155.47c.6-3.17,3.45-5.88,6.76-5.83,4.38-.68,8.55,3.46,8.29,7.81-.39,2.8-2.26,5.53-5.03,6.43-1.92.93-4.16.42-5.99-.46-1.5-.67-2.37-2.13-3.54-3.2-.07,1.36.48,2.88-.3,4.13-.91,1.88-3.04,2.77-5.05,2.61-2-1.1-4.46-2.79-3.96-5.42.64-2.15,2.61-4.38,5.06-4.01,1.78.14,2.91,1.65,4.24,2.64-.22-1.55-.91-3.11-.47-4.69ZM314.6,196.46c.32-.56,1.1-.51,1.4.04,2.82,3.19,6.18,5.85,9.5,8.5-2.32,2.69-4.65,5.37-7.06,7.98-3.38-3.04-6.87-5.94-10.18-9.04,1.89-2.68,4.16-5.05,6.33-7.49ZM297.84,149.46c3.98-1.7,9.14,1.15,9.92,5.34-3.04,1.8-5.25,4.8-6.57,8.03-2.79-.52-5.72-1.84-6.91-4.6-1.72-3.24.07-7.65,3.56-8.77ZM352.13,165.32c2.72-1.68,6.65.4,6.89,3.54.33,2.09-1.26,4.16-3.25,4.7-.75.25-1.65.63-2.36.1-1.44-.94-2.78-2.11-3.84-3.47-.46-1.95.87-3.96,2.56-4.87ZM366.77,207.27c3.44-.39,6.68,2.46,7.13,5.82.73,4.2-3.82,8.37-7.94,7.07-2.69-.68-5.22-3.19-5.07-6.08.89-.84,1.97-1.46,2.85-2.32,1.33-1.26,2.06-2.97,3.03-4.49ZM299.3,201.08c1.93-.73,4.03.05,5.61,1.22,1.97,1.52,3.56,3.46,5.47,5.05,3.04,2.56,6.05,5.15,9.1,7.7,1.47,1.22,2.71,2.97,2.58,4.96.07,4.07-4.22,7.57-8.21,6.44-2.14-.75-3.74-2.44-5.38-3.93-4.04-3.69-8.55-6.85-12.36-10.78-1.38-1.52-2.19-3.65-1.69-5.69.72-2.3,2.59-4.25,4.89-4.99ZM220.43,284.61c1.29-.84,2.89-.81,4.37-.87,1.61-.11,3.01.9,4.19,1.89,5.27,4.82,10.25,9.97,15.88,14.39,2.07,1.64,4.45,3.46,5,6.21.46,4.27-3.22,8.62-7.58,8.58-1.23-.17-2.48-.48-3.52-1.19-3.78-2.43-6.52-6.1-10.1-8.78-2.91-2.26-5.46-4.94-8.48-7.05-1.86-1.49-3.84-3.46-3.69-6.04-.44-2.93,1.54-5.66,3.93-7.13ZM219.2,300.99c.59-.55,1.35-1.92,2.25-1.05,3.21,2.66,6.27,5.5,9.53,8.11.39.42,1.47.93.78,1.59-5.4,6.53-11.21,12.7-17.03,18.85-3.23,2.83-5.59,6.47-8.63,9.48-2.59,2.88-4.99,5.93-7.68,8.72-3.91,4.48-7.58,9.15-11.72,13.43-3.61-2.94-6.94-6.19-10.51-9.18-.38-.25-.66-.81-.34-1.21,3.15-3.69,6.41-7.3,9.86-10.73,2.62-2.32,4.69-5.17,7.23-7.57,3.21-3.91,6.69-7.59,9.85-11.53,5.27-6.48,10.62-12.89,16.4-18.91ZM185.58,305.41c.49-.62,1.25-.14,1.67.32,4.97,4.49,10.14,8.76,14.98,13.4-.87,1.19-1.8,2.37-2.92,3.35-3.48-2.57-6.54-5.67-9.9-8.38l-.56.7c2.57,3.99,4.39,8.39,6.76,12.49-1,1.18-1.9,2.48-3.14,3.42-2.04-.52-3.95-1.48-5.98-2.06-2.71-.82-5.17-2.53-8.02-2.82.27.45.5.94.92,1.27,3.02,2.43,5.94,5,8.66,7.76-.28,1.42-1.83,2.23-2.66,3.35-2.42-1.36-4.32-3.42-6.41-5.2-3.47-3-6.94-6.02-10.31-9.13,1.32-1.36,2.47-2.87,3.67-4.33.41-.64,1.27-.84,1.95-.53,3.99,1.73,8.13,3.04,12.14,4.72.59.25,1.23.31,1.87.37-.71-3.1-2.82-5.64-4.11-8.51-.82-1.97-2.29-3.66-2.8-5.74,1.25-1.61,2.73-3.04,4.19-4.47ZM211.88,333.37c.36-1.27,1.46-2.45,2.61-3.1l.56.22c2.41,1.93,4.65,4.05,7.03,6.02,1.63,1.15,2.89,2.72,4.44,3.96,1.59,1.46,3.31,2.77,4.82,4.31-1.76,1.45-3.07,3.36-4.74,4.88-5.19-1.81-10.22-4.07-15.5-5.64.12.65.2,1.33.56,1.91,1.78,3.15,3.31,6.43,5.04,9.6.54,1.21,1.51,2.38,1.42,3.77-1.4,1.31-2.76,2.65-3.89,4.2-.45.89-1.34.02-1.8-.39-5.12-4.56-10.32-9.03-15.38-13.64.91-1.03,1.68-2.22,2.81-3.03.65-.12,1.07.52,1.56.83,2.98,2.63,5.92,5.31,8.87,7.96l1.01-.09c-.7-1.69-1.84-3.16-2.68-4.78-1.43-2.7-2.9-5.39-4.17-8.17-.36-.78.34-1.34.76-1.89.82-.92,1.56-1.94,2.6-2.63,4.51,1.48,8.85,3.48,13.28,5.17-.14-.49-.17-1.06-.6-1.39-2.89-2.67-5.9-5.23-8.6-8.09ZM235.63,283.06l-3.39,4.35c.95,1.14,2.19,1.97,3.27,2.98,2.55,2.17,4.69,4.8,7.41,6.78l10.76-11.7c-4.2.61-10.54,1.79-18.05-2.42ZM295.28,217.62l-20.66,22.38c4.05,2.72,6.04,10.38,4.41,17.2l18.62-20.82c3.54-3.89,7.07-7.81,10.51-11.79.56-.4.16-1.06-.29-1.34-3.45-2.69-6.65-5.66-10-8.46-.9.91-1.75,1.87-2.59,2.84ZM311.37,154.41c5.01-1.12,10.24-.13,14.95,1.74,6.55,2.49,12.51,6.35,17.85,10.86,4.03,3.09,7.64,6.7,10.89,10.59,4.72,5.74,9.02,12.1,10.93,19.38,1.15,4.57.92,9.89-2.23,13.64-2.7,2.89-6.59,4.68-10.55,4.74-2.88.27-5.75-.41-8.47-1.27-3.87-1.37-7.75-2.78-11.25-4.94-4.35-2.48-8.36-5.51-12.18-8.73-2.64-2.15-4.74-4.85-7.01-7.37-3.18-3.42-5.83-7.29-8.25-11.27-2.96-5.23-4.67-11.33-3.93-17.36.7-4.79,4.45-9.07,9.26-10.01Z"/>
  <path class="cls-3" d="M319.82,167.01c-1.59.54-3.15,1.51-3.92,3.07-2.01,3.68-1.32,8.19.42,11.83,2.12,3.97,5.62,7.55,10.18,8.44,1.33.1,2.66-.11,3.99-.21-.08,3.18.96,6.53,3.36,8.71,3.12,3.01,7.55,4.54,11.86,4.38,3.02-.01,5.9-1.81,7.47-4.35,1.18-2.05.87-4.53.43-6.74-1.47-5.08-5.04-9.84-10.13-11.68-1.72-.81-3.62-.61-5.38-.08.4-1.37.64-2.4.28-3.85-.74-2.47-1.97-4.9-4.08-6.48-3.95-3.32-9.56-4.38-14.5-3.03ZM356.72,152.45c-3.05.9-4,5.41-1.41,7.35,2.51,2.36,7.05.36,7.25-3,.23-3-3.03-5.39-5.84-4.36ZM350.95,155.47c.6-3.17,3.45-5.88,6.76-5.83,4.38-.68,8.55,3.46,8.29,7.81-.39,2.8-2.26,5.53-5.03,6.43-1.92.93-4.16.42-5.99-.46-1.5-.67-2.37-2.13-3.54-3.2-.07,1.36.48,2.88-.3,4.13-.91,1.88-3.04,2.77-5.05,2.61-2-1.1-4.46-2.79-3.96-5.42.64-2.15,2.61-4.38,5.06-4.01,1.78.14,2.91,1.65,4.24,2.64-.22-1.55-.91-3.11-.47-4.69ZM314.6,196.46c.32-.56,1.1-.51,1.4.04,2.82,3.19,6.18,5.85,9.5,8.5-2.32,2.69-4.65,5.37-7.06,7.98-3.38-3.04-6.87-5.94-10.18-9.04,1.89-2.68,4.16-5.05,6.33-7.49ZM297.84,149.46c3.98-1.7,9.14,1.15,9.92,5.34-3.04,1.8-5.25,4.8-6.57,8.03-2.79-.52-5.72-1.84-6.91-4.6-1.72-3.24.07-7.65,3.56-8.77ZM352.13,165.32c2.72-1.68,6.65.4,6.89,3.54.33,2.09-1.26,4.16-3.25,4.7-.75.25-1.65.63-2.36.1-1.44-.94-2.78-2.11-3.84-3.47-.46-1.95.87-3.96,2.56-4.87ZM366.77,207.27c3.44-.39,6.68,2.46,7.13,5.82.73,4.2-3.82,8.37-7.94,7.07-2.69-.68-5.22-3.19-5.07-6.08.89-.84,1.97-1.46,2.85-2.32,1.33-1.26,2.06-2.97,3.03-4.49ZM299.3,201.08c1.93-.73,4.03.05,5.61,1.22,1.97,1.52,3.56,3.46,5.47,5.05,3.04,2.56,6.05,5.15,9.1,7.7,1.47,1.22,2.71,2.97,2.58,4.96.07,4.07-4.22,7.57-8.21,6.44-2.14-.75-3.74-2.44-5.38-3.93-4.04-3.69-8.55-6.85-12.36-10.78-1.38-1.52-2.19-3.65-1.69-5.69.72-2.3,2.59-4.25,4.89-4.99ZM220.43,284.61c1.29-.84,2.89-.81,4.37-.87,1.61-.11,3.01.9,4.19,1.89,5.27,4.82,10.25,9.97,15.88,14.39,2.07,1.64,4.45,3.46,5,6.21.46,4.27-3.22,8.62-7.58,8.58-1.23-.17-2.48-.48-3.52-1.19-3.78-2.43-6.52-6.1-10.1-8.78-2.91-2.26-5.46-4.94-8.48-7.05-1.86-1.49-3.84-3.46-3.69-6.04-.44-2.93,1.54-5.66,3.93-7.13ZM219.2,300.99c.59-.55,1.35-1.92,2.25-1.05,3.21,2.66,6.27,5.5,9.53,8.11.39.42,1.47.93.78,1.59-5.4,6.53-11.21,12.7-17.03,18.85-3.23,2.83-5.59,6.47-8.63,9.48-2.59,2.88-4.99,5.93-7.68,8.72-3.91,4.48-7.58,9.15-11.72,13.43-3.61-2.94-6.94-6.19-10.51-9.18-.38-.25-.66-.81-.34-1.21,3.15-3.69,6.41-7.3,9.86-10.73,2.62-2.32,4.69-5.17,7.23-7.57,3.21-3.91,6.69-7.59,9.85-11.53,5.27-6.48,10.62-12.89,16.4-18.91ZM185.58,305.41c.49-.62,1.25-.14,1.67.32,4.97,4.49,10.14,8.76,14.98,13.4-.87,1.19-1.8,2.37-2.92,3.35-3.48-2.57-6.54-5.67-9.9-8.38l-.56.7c2.57,3.99,4.39,8.39,6.76,12.49-1,1.18-1.9,2.48-3.14,3.42-2.04-.52-3.95-1.48-5.98-2.06-2.71-.82-5.17-2.53-8.02-2.82.27.45.5.94.92,1.27,3.02,2.43,5.94,5,8.66,7.76-.28,1.42-1.83,2.23-2.66,3.35-2.42-1.36-4.32-3.42-6.41-5.2-3.47-3-6.94-6.02-10.31-9.13,1.32-1.36,2.47-2.87,3.67-4.33.41-.64,1.27-.84,1.95-.53,3.99,1.73,8.13,3.04,12.14,4.72.59.25,1.23.31,1.87.37-.71-3.1-2.82-5.64-4.11-8.51-.82-1.97-2.29-3.66-2.8-5.74,1.25-1.61,2.73-3.04,4.19-4.47ZM211.88,333.37c.36-1.27,1.46-2.45,2.61-3.1l.56.22c2.41,1.93,4.65,4.05,7.03,6.02,1.63,1.15,2.89,2.72,4.44,3.96,1.59,1.46,3.31,2.77,4.82,4.31-1.76,1.45-3.07,3.36-4.74,4.88-5.19-1.81-10.22-4.07-15.5-5.64.12.65.2,1.33.56,1.91,1.78,3.15,3.31,6.43,5.04,9.6.54,1.21,1.51,2.38,1.42,3.77-1.4,1.31-2.76,2.65-3.89,4.2-.45.89-1.34.02-1.8-.39-5.12-4.56-10.32-9.03-15.38-13.64.91-1.03,1.68-2.22,2.81-3.03.65-.12,1.07.52,1.56.83,2.98,2.63,5.92,5.31,8.87,7.96l1.01-.09c-.7-1.69-1.84-3.16-2.68-4.78-1.43-2.7-2.9-5.39-4.17-8.17-.36-.78.34-1.34.76-1.89.82-.92,1.56-1.94,2.6-2.63,4.51,1.48,8.85,3.48,13.28,5.17-.14-.49-.17-1.06-.6-1.39-2.89-2.67-5.9-5.23-8.6-8.09ZM235.63,283.06l-3.39,4.35c.95,1.14,2.19,1.97,3.27,2.98,2.55,2.17,4.69,4.8,7.41,6.78l10.76-11.7c-4.2.61-10.54,1.79-18.05-2.42ZM295.28,217.62l-20.66,22.38c4.05,2.72,6.04,10.38,4.41,17.2l18.62-20.82c3.54-3.89,7.07-7.81,10.51-11.79.56-.4.16-1.06-.29-1.34-3.45-2.69-6.65-5.66-10-8.46-.9.91-1.75,1.87-2.59,2.84ZM311.37,154.41c5.01-1.12,10.24-.13,14.95,1.74,6.55,2.49,12.51,6.35,17.85,10.86,4.03,3.09,7.64,6.7,10.89,10.59,4.72,5.74,9.02,12.1,10.93,19.38,1.15,4.57.92,9.89-2.23,13.64-2.7,2.89-6.59,4.68-10.55,4.74-2.88.27-5.75-.41-8.47-1.27-3.87-1.37-7.75-2.78-11.25-4.94-4.35-2.48-8.36-5.51-12.18-8.73-2.64-2.15-4.74-4.85-7.01-7.37-3.18-3.42-5.83-7.29-8.25-11.27-2.96-5.23-4.67-11.33-3.93-17.36.7-4.79,4.45-9.07,9.26-10.01Z"/>
  <path class="cls-13" d="M423.51,375.61c-1.01-.76-1.76-1.68-2.23-2.76-.47-1.08-.63-2.24-.5-3.47.13-1.23.59-2.45,1.38-3.68,1.21-1.9,2.67-3.08,4.36-3.55,1.7-.47,3.4-.22,5.12.76l-1.76,2.74c-.65-.34-1.22-.43-1.71-.29-.5.15-.95.45-1.37.93-.41.46-.82,1.01-1.22,1.64-.33.51-.61,1.07-.86,1.66-.24.59-.33,1.16-.28,1.72.06.56.34,1.05.87,1.48l-1.8,2.81ZM404.39,358.66l6.56,1.78c.43.13.99.28,1.68.48.69.18,1.39.38,2.09.59.71.2,1.32.39,1.83.57-.37-.39-.82-.89-1.35-1.49-.53-.6-1.02-1.18-1.49-1.72-.47-.55-.8-.93-1-1.17l-4.38-5.19-3.94,6.15ZM392.74,355.29l6.68,1.87,5.51-8.61-4.49-5.29,3.46-5.39,18.27,23.45-3.92,6.12-28.96-6.76,3.46-5.39ZM413.64,316.35l25.55,11.54-2.45,5.42-21.08-9.52-4.68,10.37-4.47-2.02,7.13-15.78ZM430.81,301.52l6.78-.53c.45-.02,1.03-.07,1.74-.12.71-.06,1.43-.11,2.17-.15.74-.05,1.37-.07,1.91-.08-.48-.24-1.07-.56-1.77-.94-.7-.39-1.36-.76-1.99-1.11-.62-.36-1.07-.61-1.34-.76l-5.87-3.41-1.64,7.12ZM418.71,302.28l6.92-.49,2.29-9.96-6.01-3.46,1.43-6.24,25.1,15.92-1.63,7.08-29.55,3.4,1.44-6.24ZM424.8,255.11l22.16-6.18v-.17c-.52.01-1.31.03-2.37.06-1.06.03-2.18.05-3.37.08-1.19.02-2.27.02-3.22,0l-13.04-.34.14-5.31,28.02.73-.21,8.09-21.6,6.08v.12s21.24,7.59,21.24,7.59l-.21,8.09-28.02-.73.14-5.53,13.27.34c.88.02,1.9.06,3.05.12,1.14.06,2.24.13,3.28.21,1.04.08,1.82.14,2.35.17v-.17s-21.75-7.79-21.75-7.79l.14-5.44ZM433.33,222.49l5.86-3.44c.39-.22.9-.51,1.51-.87.61-.36,1.24-.72,1.88-1.09.64-.36,1.2-.67,1.68-.91-.54,0-1.21-.03-2.01-.07-.8-.04-1.56-.09-2.27-.13-.72-.05-1.23-.08-1.53-.1l-6.77-.5,1.64,7.12ZM422.78,228.46l6.01-3.47-2.3-9.96-6.92-.48-1.44-6.24,29.54,3.34,1.63,7.08-25.08,15.98-1.44-6.24ZM442.97,193.11l-29.57,1.41-2.37-6.03,22.6-19.12,2.2,5.58-13.59,11.02c-.23.18-.67.52-1.31.99-.64.47-1.33.97-2.06,1.48-.73.51-1.34.91-1.83,1.19.55-.13,1.27-.27,2.13-.4.87-.13,1.71-.24,2.5-.34.79-.1,1.34-.16,1.65-.19l17.47-1.17,2.2,5.58ZM422.15,134.63c-1.05.71-2.16,1.11-3.34,1.2-1.18.08-2.32-.14-3.44-.67-1.12-.53-2.12-1.36-3.02-2.51-1.39-1.77-2.03-3.53-1.92-5.28.12-1.76.91-3.28,2.4-4.58l2.02,2.56c-.53.5-.81,1.01-.83,1.52-.02.52.12,1.05.42,1.6.3.54.69,1.11,1.15,1.69.38.48.81.93,1.28,1.36.48.42.99.69,1.54.83.54.13,1.11.02,1.68-.34l2.07,2.62ZM399.86,147.13l3.84-5.61c.26-.36.59-.84,1-1.43.4-.59.82-1.18,1.24-1.79.43-.6.8-1.11,1.13-1.54-.49.23-1.11.49-1.85.79-.74.3-1.45.58-2.11.85-.67.26-1.14.45-1.43.56l-6.34,2.43,4.52,5.74ZM392.87,157.03l3.96-5.7-6.32-8.03-6.47,2.51-3.96-5.03,28.15-9.57,4.49,5.71-15.88,25.15-3.96-5.03ZM362.52,124.63l18.36-21.18,4.49,3.89-15.15,17.48,8.59,7.45-3.21,3.71-13.08-11.34ZM353.94,104.19l1.79-6.56c.13-.43.29-.99.48-1.68.19-.69.38-1.39.59-2.09.21-.71.4-1.32.57-1.83-.39.37-.89.82-1.49,1.35-.6.53-1.18,1.02-1.72,1.49-.55.47-.93.8-1.17,1l-5.19,4.37,6.14,3.95ZM350.57,115.83l1.88-6.68-8.6-5.52-5.29,4.49-5.39-3.46,23.47-18.25,6.11,3.92-6.79,28.96-5.39-3.46ZM325,100.8l-7.15-2.42-4.76-24-.16-.05c-.23.85-.48,1.71-.73,2.56-.25.86-.5,1.72-.75,2.57-.25.86-.5,1.71-.75,2.57l-4.23,12.5-5.03-1.7,8.98-26.56,7.1,2.4,4.8,23.79.12.04c.26-.83.51-1.66.74-2.48.24-.82.48-1.65.72-2.47.24-.82.49-1.64.74-2.46l4.25-12.57,5.06,1.71-8.98,26.56ZM272.35,73.35c-.25,1.95-.22,3.65.1,5.12.31,1.47.93,2.64,1.88,3.54.94.88,2.24,1.43,3.89,1.64,1.68.21,3.08,0,4.21-.62,1.13-.63,2.03-1.61,2.68-2.96.65-1.34,1.1-2.99,1.35-4.94.37-2.92.11-5.29-.76-7.11-.88-1.81-2.57-2.88-5.07-3.19-1.66-.21-3.07,0-4.21.62-1.14.62-2.04,1.6-2.71,2.95-.67,1.34-1.12,2.99-1.37,4.95ZM292.65,75.91c-.27,2.15-.78,4.07-1.54,5.76-.75,1.69-1.76,3.1-3,4.24-1.24,1.13-2.74,1.93-4.49,2.4-1.75.47-3.76.56-6.02.27-2.27-.29-4.2-.87-5.77-1.76-1.58-.89-2.83-2.04-3.75-3.44-.92-1.41-1.54-3.03-1.85-4.86-.31-1.83-.33-3.83-.06-5.98.36-2.88,1.15-5.34,2.37-7.36,1.21-2.02,2.88-3.49,4.99-4.43,2.12-.93,4.69-1.21,7.72-.83,3.01.38,5.42,1.28,7.22,2.71,1.79,1.43,3.03,3.27,3.71,5.54.67,2.26.83,4.84.46,7.74ZM247.58,86.9l-.73-28.02,5.94-.15.73,28.02-5.94.15ZM231.47,91.07l.07.38c-.15.61-.33,1.26-.54,1.95-.21.7-.44,1.41-.7,2.15-.25.74-.54,1.5-.86,2.27l-3.36.6-.09-.51c.06-.53.11-1.14.14-1.85.03-.7.05-1.41.06-2.12,0-.72-.01-1.35-.05-1.92l5.32-.95ZM230.71,88.77l-5.85,1.05-4.08-22.72-7.49,1.34-.87-4.87,20.83-3.74.87,4.87-7.49,1.34,4.08,22.72ZM198.58,84.59l-4.01-5.49c-.26-.37-.6-.84-1.01-1.42-.42-.58-.84-1.17-1.27-1.77-.42-.6-.78-1.13-1.07-1.58.05.53.09,1.21.12,2,.04.8.06,1.56.09,2.28.02.72.04,1.23.05,1.54l.17,6.79,6.92-2.34ZM205.57,94.49l-4.05-5.64-9.68,3.27.2,6.94-6.07,2.05.39-29.73,6.88-2.33,18.39,23.37-6.07,2.05ZM177.96,105.02l-6.35,4.08-21.72-11.26-.14.09c.52.72,1.04,1.44,1.55,2.17.52.73,1.03,1.46,1.55,2.19.51.73,1.03,1.46,1.55,2.19l7.13,11.1-4.47,2.87-15.14-23.59,6.31-4.05,21.59,11.1.11-.07c-.49-.72-.98-1.43-1.48-2.13-.5-.7-.99-1.4-1.48-2.11-.49-.7-.98-1.4-1.46-2.11l-7.17-11.17,4.5-2.89,15.14,23.59ZM123.23,133.1l-6.23-2.71c-.41-.19-.94-.43-1.59-.71-.65-.28-1.32-.58-1.99-.88-.67-.3-1.25-.58-1.73-.82.31.44.69,1,1.12,1.67.44.67.84,1.31,1.23,1.92.38.61.66,1.04.82,1.3l3.58,5.77,4.79-5.51ZM134.26,138.11l-6.34-2.82-6.7,7.72,3.68,5.88-4.2,4.84-14.69-25.85,4.76-5.49,27.68,10.87-4.2,4.84ZM112.75,166.07l-23.62-15.11,3.2-5.01,23.62,15.11-3.2,5.01ZM106.55,181.39l.35.16c.41.47.85.98,1.31,1.54.46.57.91,1.16,1.37,1.79.47.63.93,1.3,1.38,1.99l-1.41,3.11-.47-.21c-.4-.35-.88-.74-1.44-1.16-.56-.42-1.13-.83-1.71-1.25-.59-.41-1.12-.76-1.61-1.05l2.22-4.93ZM104.22,180.71l-2.44,5.41-21.04-9.5-3.13,6.94-4.51-2.04,8.71-19.29,4.51,2.04-3.13,6.94,21.04,9.5ZM82.44,205.04l-6.79.18c-.45,0-1.03.01-1.74.03-.71.02-1.44.03-2.17.04-.74,0-1.38,0-1.91-.01.47.26,1.04.61,1.72,1.03.68.43,1.32.83,1.93,1.21.6.39,1.04.66,1.29.83l5.69,3.71,2-7.02ZM94.56,204.9l-6.94.14-2.8,9.83,5.83,3.77-1.75,6.16-24.26-17.19,1.99-6.99,29.68-1.89-1.75,6.16ZM87.74,239.36l-27.81-3.54.75-5.89,27.81,3.54-.75,5.89ZM63.52,258.25c.03,1.13.28,2.13.74,3,.47.87,1.13,1.58,1.97,2.16.85.57,1.87,1,3.06,1.27,1.19.28,2.52.4,4,.37,1.99-.05,3.68-.34,5.08-.87,1.39-.53,2.44-1.32,3.15-2.37.71-1.05,1.05-2.4,1.01-4.03-.03-1.14-.18-2.28-.47-3.41-.28-1.14-.67-2.37-1.18-3.7l4.98-.12c.54,1.22.94,2.44,1.2,3.63.25,1.2.4,2.54.43,4.04.07,2.88-.47,5.27-1.62,7.16-1.15,1.89-2.79,3.31-4.93,4.25-2.14.95-4.64,1.46-7.53,1.53-2.13.05-4.08-.19-5.86-.71-1.78-.53-3.33-1.34-4.65-2.42-1.32-1.08-2.36-2.43-3.1-4.05-.75-1.62-1.15-3.49-1.2-5.61-.04-1.39.11-2.8.43-4.21.31-1.4.76-2.75,1.35-4.05l4.88,1.8c-.47,1.06-.88,2.12-1.22,3.19-.35,1.07-.5,2.11-.48,3.14ZM79.06,303.29c1.91-.44,3.5-1.06,4.77-1.86,1.27-.8,2.16-1.79,2.67-2.99.5-1.19.57-2.6.2-4.22-.38-1.65-1.06-2.89-2.03-3.74-.98-.85-2.21-1.35-3.7-1.5-1.49-.15-3.18,0-5.1.44-2.87.66-5,1.72-6.41,3.17-1.4,1.45-1.81,3.41-1.25,5.85.38,1.63,1.05,2.88,2.04,3.73.98.86,2.21,1.36,3.7,1.52,1.49.17,3.19.02,5.11-.42ZM74.46,283.36c2.11-.49,4.09-.67,5.94-.54,1.85.12,3.52.58,5.01,1.35,1.49.78,2.76,1.9,3.8,3.38,1.05,1.48,1.82,3.33,2.34,5.56.51,2.23.63,4.24.33,6.02-.29,1.79-.94,3.36-1.94,4.71-1,1.35-2.31,2.49-3.93,3.41-1.61.92-3.48,1.63-5.6,2.12-2.83.65-5.4.76-7.72.32-2.31-.44-4.27-1.5-5.88-3.16-1.61-1.66-2.75-3.98-3.44-6.96-.68-2.96-.67-5.53.05-7.71.72-2.17,2.02-3.97,3.92-5.39,1.89-1.41,4.26-2.45,7.1-3.1ZM89.86,318.09c1.52-.69,3-.92,4.45-.7,1.45.22,2.8.9,4.05,2.03,1.24,1.12,2.32,2.69,3.23,4.69.4.88.73,1.77,1,2.67.26.89.46,1.78.58,2.66.12.88.18,1.74.16,2.6l-5.03,2.28c-.01-1.46-.1-2.94-.26-4.43-.16-1.5-.53-2.89-1.11-4.17-.4-.88-.84-1.54-1.32-1.97-.48-.44-.98-.68-1.5-.74-.52-.06-1.05.03-1.58.27-.64.29-1.09.75-1.35,1.4-.26.63-.42,1.42-.47,2.35-.06.93-.1,1.97-.13,3.12-.01.72-.06,1.52-.15,2.4-.08.88-.28,1.77-.58,2.66-.3.9-.77,1.73-1.42,2.51-.65.78-1.56,1.43-2.73,1.96-1.53.69-3,.93-4.4.73-1.4-.21-2.69-.83-3.85-1.86-1.17-1.04-2.15-2.45-2.95-4.21-.6-1.33-1.02-2.66-1.26-4.01-.24-1.34-.37-2.8-.38-4.38l5-.16c.06,1.39.16,2.61.32,3.66.16,1.05.46,2.06.9,3.03.3.67.67,1.2,1.11,1.58.43.38.9.61,1.4.67.5.07,1.01-.02,1.53-.26.61-.28,1.03-.68,1.29-1.22.25-.55.41-1.26.47-2.15.06-.89.11-1.99.13-3.29.03-1.58.17-2.99.42-4.22.25-1.23.72-2.29,1.4-3.21.68-.91,1.69-1.67,3.03-2.28ZM103.02,352.4l-4.36,5.21c-.3.34-.67.78-1.13,1.32-.46.55-.93,1.1-1.41,1.66-.48.56-.91,1.03-1.28,1.43.51-.18,1.15-.38,1.91-.6.77-.23,1.5-.44,2.19-.64.69-.19,1.18-.34,1.48-.42l6.54-1.81-3.94-6.15ZM110.95,343.23l-4.49,5.29,5.51,8.61,6.68-1.87,3.46,5.39-28.94,6.79-3.92-6.12,18.25-23.48,3.46,5.39Z"/>
  <path class="cls-10" d="M196.1,455.65c-27.66-8.24-52.92-22.07-74.46-40.18l32.81-39.03c18.15,15.25,39.8,26.49,63.56,32.33l-21.91,46.88Z"/>
  <path class="cls-5" d="M196.1,455.65c-27.66-8.24-52.92-22.07-74.46-40.18l32.81-39.03c18.15,15.25,39.8,26.49,63.56,32.33l-21.91,46.88Z"/>
  <path class="cls-9" d="M315.42,455.65c27.66-8.24,52.92-22.07,74.46-40.18l-32.81-39.03c-18.15,15.25-39.8,26.49-63.56,32.33l21.91,46.88Z"/>
  <path class="cls-5" d="M315.42,455.65c27.66-8.24,52.92-22.07,74.46-40.18l-32.81-39.03c-18.15,15.25-39.8,26.49-63.56,32.33l21.91,46.88Z"/>
  <path class="cls-13" d="M251.25,417.16c-1.17.06-.02.31-.27,1.34-1.03.26-1.29-.89-1.34.28.06,1.17.31.02,1.34.27-.13.42.34,3.48-.36,3.58.3.04.57.45.64.67.07-.22.33-.63.64-.67-.71-.09-.23-3.17-.37-3.58,1.03-.26,1.29.89,1.34-.28-.06-1.17-.31-.02-1.34-.27-.26-1.03.89-1.29-.28-1.34"/>
  <path class="cls-15" d="M251.25,417.29c-.64-.07.04.46-.15,1.34-.86.19-1.41-.49-1.34.15-.1.61.6-.03,1.34.14.14.86-.29,3.67.14,4.13.51-.3-.17-3.63.25-4.13.58-.19,1.34.47,1.24-.15.07-.64-.45.04-1.34-.15-.19-.87.49-1.41-.15-1.34Z"/>
  <path class="cls-13" d="M259.24,428.4c-1.64-1.16-2.16-3.66-1.2-5.37-.09-1.12-.04-.97.45-.55.12-.79-.72-1.26.25-1.24-.12-.31-.73-.69-.73-.69.4-.41,1-.21.09-.47-1.57-.49-4.17-2.17-5.18-.56-.2.17-.54.17-.71.17-1.07,0-1.11,1.14-1.11,1.14.18-.72,2.29-.22,2.17.19-.39.38-1.83-.64-1.83-.03,2.72.43,2.36,6.06.15,7.42,1.96.65,5.67.66,7.64,0"/>
  <path class="cls-13" d="M255.42,427.54c-1.4.29-4.01,1.34-5.38.24-1.01-.56-1.53-1.12-2.73-1.18v-.91c.6-1.83-1.2-2.43-3.02-4-6.7,3.81-2.04,19.17-3.38,31.16-.84,2.53,1.79-1.18,2-1.73v.32c2.49-1.21,3.92-5.72,4.32-7.74,1.29,1.53,2.79,1.5.99,3.68,1-.21-.84,1.54-1.04,2.19-.41.69-1.41-.13-2.31,1.12-.4.32-.18,1.79.13,1.29,1.19,1.98,2.01,1.13,2.87-.63.62-.64,2.13-3.34,2.17-2.55,1.54-1.9,1.62-2.15,3.44-1.13,0,0-2.98,6.86-5.63,7.91,0,0,1.15.49,2.57,1.22,1.1,1.15,2.73-3.09,2.86-2.8-2.48,6.11-1.4,1.91,2.16,6.52.12-1.01-.04-31.55,0-32.97"/>
  <path class="cls-1" d="M249.26,447.96c2.1-1.23-1.89,2.94-1.92,3.89-.23.03-.28-.7-.22-.77,0,0-.18.21-.49.21,0-.25.48-.52.5-.88-.37.27-.69.13-1.11.26-1.45.8-.82-.35.17-.56.1-.02.85.16,1-.07.95-1.06,1.83-3.87,2.07-2.08"/>
  <path class="cls-1" d="M245.75,450.98c.09.1-.28.42-.37.32-.09-.1.28-.42.37-.32"/>
  <path class="cls-1" d="M246.12,451.24c.23.21-.71,1.03-.89.77-.24-.21.71-1.03.89-.77"/>
  <path class="cls-1" d="M246.46,451.64c.24.21-.71,1.03-.88.77-.24-.21.71-1.03.88-.77"/>
  <path class="cls-1" d="M246.67,451.97c.83.12-1.05,1.49-.7.56.06-.04.63-.59.7-.56"/>
  <path class="cls-13" d="M255.42,427.54c1.4.29,4.01,1.34,5.38.24,1.01-.56,1.53-1.12,2.73-1.18v-.91c-.6-1.83,1.2-2.43,3.03-4,6.7,3.81,2.04,19.17,3.38,31.16.84,2.53-1.79-1.18-2-1.73v.32c-2.49-1.21-3.92-5.72-4.32-7.74-1.29,1.53-2.79,1.5-.99,3.68-1-.21.84,1.54,1.04,2.19.41.69,1.4-.13,2.31,1.12.4.32.18,1.79-.13,1.29-1.19,1.98-2.01,1.13-2.87-.63-.62-.64-2.13-3.34-2.17-2.55-1.54-1.9-1.62-2.15-3.44-1.13,0,0,2.98,6.86,5.63,7.91,0,0-1.15.49-2.57,1.22-1.1,1.15-2.73-3.09-2.86-2.8,2.48,6.11,1.4,1.91-2.16,6.52-.12-1.01.05-31.55,0-32.97"/>
  <path class="cls-1" d="M261.59,447.96c-2.1-1.23,1.89,2.94,1.92,3.89.23.03.28-.7.22-.77,0,0,.18.21.49.21,0-.25-.48-.52-.5-.88.37.27.69.13,1.11.26,1.45.8.82-.35-.17-.56-.1-.02-.85.16-1-.07-.95-1.06-1.83-3.87-2.07-2.08"/>
  <path class="cls-1" d="M265.1,450.98c-.09.1.28.42.37.32.09-.1-.28-.42-.37-.32"/>
  <path class="cls-1" d="M264.72,451.24c-.23.21.71,1.03.89.77.24-.21-.71-1.03-.89-.77"/>
  <path class="cls-1" d="M264.38,451.64c-.24.21.71,1.03.88.77.24-.21-.71-1.03-.88-.77"/>
  <path class="cls-1" d="M264.17,451.97c-.83.12,1.05,1.49.7.56-.06-.04-.63-.59-.7-.56"/>
  <path class="cls-11" d="M255.42,458.79c-.5-.54-1.53-1.19-2.69-1.8,1.4-2.52,2.1-6.51,1.77-7.3-.13,1.15-2.24,5.26-3.51,6.47-.64-.27-1.26-.5-1.79-.66,2.33-1.79,4.71-7.72,4.71-7.72l-2.46-1.14s-.92,1.07-1.22,1.27c-.23-.6.1-.85-.75-.45,0-.77-.31-.45-.75-.47.36-.17.77-1.2.77-1.2l-2.35-3.13s-.83,3.97-1.77,4.78c.53.38-1.1-20.04.74-16.39,0,0,1.13-1.05,1.13-1.05v-.8l-1,.93c.17-1.98-.62-4.3,1.62-1.27.94-1.36.57-.59,1.37,0,.13-.23.89-.73.89-.73,0,0-.66.1-.92.35-.59-.75.23-1.56-1.42-.14-1.68-2.05,1.4-.79,2.34-.2,1.03.43,1.96.06.62.75,1.16.38,3.78-1.95,2.25-.02,1.91-.09,1.68-1.77,2.39-.19,1.11-.88.1,29.26.43,29.25,0,0-.43.86-.43.86"/>
  <path class="cls-11" d="M246.65,424.39c.04.36.02,1.76.02,2.15-.52-.27-1.71-1.28-1.03-1.89-.36-.24-.48.2-.47.53l-.77.83c-.09-.19-.91-1.2-.76-1.44,0-.19.15-.4.27-.55-.33-.24-.49.23-.52.51.11.34-.87,1.05-.88,1.13-1.05-1.23.82-2.28,1.77-3.12,0,0,1.77,1.62,2.36,1.83"/>
  <path class="cls-11" d="M242.17,425.95c0,.8.19,1.39-.62,1.9.06-.52-.25-3.9.62-1.9"/>
  <path class="cls-11" d="M244.09,426.46c.1.84-.11.97-.71,1.48v-2.56l.71,1.08Z"/>
  <path class="cls-11" d="M243.13,427.94l-.71-.66c-.08-.94.04-1.08.71-1.7v2.36Z"/>
  <path class="cls-11" d="M246.36,426.94c-.16.23-.6.8-1.06,1.05v-2.25c.11.18.6.97,1.06,1.2"/>
  <path class="cls-11" d="M245.05,425.86v2.08l-.71-.66c-.11-.78.2-.94.71-1.42"/>
  <path class="cls-11" d="M242.17,428.07v2.07c-.65-.49-.67-.72-.62-1.5,0,0,.62-.58.62-.58"/>
  <path class="cls-11" d="M243.13,428.74c.11.79-.18.93-.71,1.4v-2.07l.71.66Z"/>
  <path class="cls-11" d="M244.09,428.08v2.07c-.52-.46-.83-.64-.71-1.4,0,0,.71-.66.71-.66"/>
  <path class="cls-11" d="M245.05,428.74c.11.78-.19.93-.71,1.4,0,0,0-2.07,0-2.07l.71.66Z"/>
  <path class="cls-11" d="M246.01,430.15c-1.06-.85-.89-1.15,0-2.07v2.07"/>
  <path class="cls-11" d="M244.22,431.06c1.82-3.73.25,16.85.75,16.39,0,0,.05.85.09,1.4-.33.34-1.58,1.6-1.58,1.6.52.44-1.11-23.17.75-19.39"/>
  <path class="cls-11" d="M243.04,449.82c-3.21,9.23-.77-20.1-1.49-19.44,0,0,.74.69.74.69,1.85-3.8.24,19.26.75,18.75"/>
  <path class="cls-11" d="M255.42,458.79c.49-.54,1.53-1.19,2.69-1.8-1.4-2.52-2.1-6.51-1.77-7.3.13,1.15,2.24,5.26,3.51,6.47.64-.27,1.26-.5,1.79-.66-2.33-1.79-4.71-7.72-4.71-7.72l2.46-1.14s.92,1.07,1.22,1.27c.23-.6-.1-.85.75-.45,0-.77.31-.45.75-.47-.36-.17-.78-1.2-.78-1.2l2.35-3.13s.83,3.97,1.77,4.78c-.53.38,1.1-20.04-.74-16.39,0,0-1.13-1.05-1.13-1.05v-.8l1,.93c-.17-1.98.62-4.3-1.62-1.27-.94-1.36-.57-.59-1.37,0-.13-.23-.89-.73-.89-.73,0,0,.66.1.92.35.59-.75-.23-1.56,1.42-.14,1.68-2.05-1.4-.79-2.34-.2-1.03.43-1.96.06-.62.75-1.16.38-3.78-1.95-2.25-.02-1.91-.09-1.68-1.77-2.39-.19-1.11-.88-.1,29.26-.43,29.25,0,0,.43.86.43.86"/>
  <path class="cls-11" d="M264.19,424.39c-.04.36-.02,1.76-.02,2.15.52-.27,1.71-1.28,1.03-1.89.36-.24.48.2.47.53l.77.83c.09-.19.91-1.2.76-1.44,0-.19-.15-.4-.27-.55.34-.24.49.23.52.51-.1.34.87,1.05.88,1.13,1.05-1.23-.82-2.28-1.77-3.12,0,0-1.77,1.62-2.36,1.83"/>
  <path class="cls-11" d="M268.67,425.95c0,.8-.19,1.39.62,1.9-.06-.52.25-3.9-.62-1.9"/>
  <path class="cls-11" d="M266.75,426.46c-.1.84.11.97.71,1.48v-2.56l-.71,1.08Z"/>
  <path class="cls-11" d="M267.71,427.94l.71-.66c.08-.94-.04-1.08-.71-1.7v2.36Z"/>
  <path class="cls-11" d="M264.48,426.94c.16.23.6.8,1.06,1.05v-2.25c-.11.18-.6.97-1.06,1.2"/>
  <path class="cls-11" d="M265.79,425.86v2.08l.71-.66c.12-.78-.2-.94-.71-1.42"/>
  <path class="cls-11" d="M268.67,428.07v2.07c.65-.49.67-.72.62-1.5l-.62-.58Z"/>
  <path class="cls-11" d="M267.72,428.74c-.11.79.18.93.71,1.4v-2.07l-.71.66Z"/>
  <path class="cls-11" d="M266.76,428.08v2.07c.51-.46.82-.64.71-1.4l-.71-.66Z"/>
  <path class="cls-11" d="M265.79,428.74c-.11.78.19.93.71,1.4v-2.07l-.71.66Z"/>
  <path class="cls-11" d="M264.83,430.15c1.06-.85.89-1.15,0-2.07v2.07Z"/>
  <path class="cls-11" d="M266.63,431.06c-1.83-3.73-.25,16.85-.75,16.39,0,0-.05.85-.09,1.4.33.34,1.59,1.6,1.59,1.6-.52.44,1.11-23.17-.75-19.39"/>
  <path class="cls-11" d="M267.8,449.82c3.21,9.23.77-20.1,1.49-19.44,0,0-.74.69-.74.69-1.85-3.8-.24,19.26-.75,18.75"/>
  <path class="cls-11" d="M254.54,419.17c1.18-.02,2.16.76,3.28,1.13-.54.49-.02.15.36.74-.96.22.02.27-.02.84l-.56-.18c.31.82.01,1.59-.37,2.68.1,2.41.47,2.65,1.26,3.85-2.08-.86-1.68-2.39-1.68-4.01,0,0-.25,0-.25,0-.08,1.3-.02,3.42.75,4.41-.89-.48-1.34-1.08-1.34-1.3-.13-.09.3-3.48-.25-3.11v3.15l.05.22c-.24.62-.73.31-.63-.22-.13-.09.3-3.53-.25-3.15-.2,1.5.76,3.55-1.34,4.41.78-.98.83-3.11.75-4.41,0,0-.25,0-.25,0,0,1.62.4,3.15-1.68,4.01,2.95-3.34-.67-8.35,2.16-6.28,0,0-.03-.38-.33-.59-.21-.13-.13-.45.1-.57.07-.03-1.05-.23-1.05-.73.33-.52,1.56.5,2.33.11.41,0,1.26.77,1.55.74-.33-.2-.85-.98-1.65-.98-.77.19-1.63-.26-2.34-.29-.1-.59.98-.48,1.41-.49"/>
  <path class="cls-16" d="M251.34,420.38c-.07-.36,1.48-.47,1.68-.41.1.25.54.67.54,1.11.26-.03-1.46-1.22-2.22-.7"/>
  <path class="cls-1" d="M253.37,421.23c-.36.73-.78.09-1.05-.14,0,0,.39.23,1.05.14"/>
  <path class="cls-12" d="M252.95,420.49s-.31-.1-.31-.2c.06-.3.36.09.31.2"/>
  <path class="cls-13" d="M254.27,420.15c.57,0,.57.7,0,.7-.57,0-.57-.7,0-.7"/>
  <path class="cls-15" d="M254.27,420.19c.4,0,.4.62,0,.61-.4,0-.4-.62,0-.61"/>
  <path class="cls-13" d="M254.27,420.37c.17,0,.17.26,0,.26-.17,0-.17-.26,0-.26"/>
  <path class="cls-13" d="M247.27,452.31c1.6.82,1.48.57,1.06,2.31-1.6-.82-1.48-.57-1.06-2.31"/>
  <path class="cls-13" d="M240.77,437.41c-1.59-.42,5.44,12.48,5.17,12.65,1.98,1.11-5.58-12.66-5.17-12.65M247.46,452.06c-.47.41-.43.46-.15.99.79-.24.33-.46.15-.99Z"/>
  <path class="cls-13" d="M242.54,447.21c.4,1.09,1.31,1,.04,1.29,3.87,2.96,4.36-1.25-.04-1.29"/>
  <path class="cls-13" d="M246.14,445.44c-.61.25-1.19,2.06-.72,2.62.55,1.08.54,1.44,1.65.01.37-1.17.45-1.8-.48-1.11.13-.68-.45-1.52-.45-1.52"/>
  <path class="cls-13" d="M244.02,445.18s-.75.25-1.48.21c-1.3-.3-1.71-.78-.41-.96-2.13-1.64,1.46-1.23,1.89.75"/>
  <path class="cls-13" d="M244.27,441.51s.37.78.29,1.05c.89-1.18.71.41.57,1.58-1.1,2.12-1.31.31-1.89-.59-.33-.49.63-1.95,1.03-2.03"/>
  <path class="cls-13" d="M239.39,439.46c.13-.2,2.4.33,2.36.95l.31.82s-.88.33-1.58.08c-.96-.56-1.77-1.32-.54-1.21-.27-.12-.55-.64-.55-.64"/>
  <path class="cls-13" d="M241.94,437.94s.36.46.37.98c.09-.28.54-.59.54-.59.38.48.58,2.77-.4,3.14-.46-.85-1.68-2.7-.5-3.53"/>
  <path class="cls-13" d="M239.14,434.96c-.17,0,.09,1.83.47,1.87-1.48-.76-1.23-.05-.29,1.04,2.34,1.47,2.13-2.05,1.24-2.87-.42,1.47-.37.36-1.41-.04"/>
  <path class="cls-13" d="M245.76,449.16c-.11.54.71.17.73.42.95.7.92-1.3-.05-.5-.18.09-.68.08-.68.08"/>
  <path class="cls-13" d="M245.71,448.93c.52.2-.24.69-.03.84.09,1.18-1.59.09-.39-.31.18-.11.43-.54.43-.54"/>
  <path class="cls-13" d="M244,445.31c-.11.54.71.17.73.42.95.7.92-1.3-.05-.5-.18.09-.68.08-.68.08"/>
  <path class="cls-13" d="M244.11,445.42c.48.27-.34.65-.16.83-.09,1.18-1.59-.16-.34-.36.19-.08.51-.46.51-.46"/>
  <path class="cls-13" d="M242.3,441.71c-.11.54.71.17.73.42.95.7.92-1.3-.05-.5-.18.09-.68.08-.68.08"/>
  <path class="cls-13" d="M242.44,441.65c.48.27-.34.65-.16.83-.09,1.18-1.59-.16-.34-.36.19-.08.5-.46.5-.46"/>
  <path class="cls-13" d="M240.49,437.91c-.11.54.71.17.73.42.95.7.92-1.3-.05-.5-.18.09-.68.08-.68.08"/>
  <path class="cls-13" d="M240.63,437.85c.48.27-.34.65-.16.83-.09,1.18-1.59-.16-.34-.37.19-.08.51-.46.51-.46"/>
  <path class="cls-15" d="M247.47,452.75c.97.49.92.38.65,1.43-.97-.49-.92-.38-.65-1.43"/>
  <path class="cls-15" d="M243.68,444.41c-.26-.03-1.16-2.14-1.14-2.33.29.06,1.27,2.2,1.14,2.33"/>
  <path class="cls-15" d="M241.82,440.26c-.2.14-.99-1.61-.86-1.68.21-.03,1.02,1.57.86,1.68"/>
  <path class="cls-15" d="M246.13,449.68c-.18.12-2.22-4.23-2.02-4.4.15-.07,2.14,4.4,2.02,4.4"/>
  <path class="cls-18" d="M239.39,435.48c-.15.3.36,1.51.85,1.46.15-.3-.36-1.51-.85-1.46"/>
  <path class="cls-18" d="M238.96,436.88c.35-.14,1.36.59,1.28,1-.29.25-1.34-.86-1.28-1"/>
  <path class="cls-18" d="M240.64,435.63c-.24.07-.08,1.77.12,1.79.22-.13.26-1.63-.12-1.79"/>
  <path class="cls-18" d="M239.74,439.61c-.06.28,1.56.95,1.68.78.05-.26-1.54-.98-1.68-.78"/>
  <path class="cls-18" d="M239.87,440.47c-.02.45,1.44.82,1.63.69.01-.3-1.49-.84-1.63-.69"/>
  <path class="cls-18" d="M241.91,438.44c-.27.07-.13,1.54.08,1.56.16-.04.19-1.53-.08-1.56"/>
  <path class="cls-18" d="M242.71,438.94c-.35.14-.55,1.81-.21,2.03.5-.24.61-1.7.21-2.03"/>
  <path class="cls-18" d="M241.69,443.62c.35,1.1,1.24.51,1.92,1.11-.02-.32-1.48-1.43-1.92-1.11"/>
  <path class="cls-18" d="M241.65,444.78c.23-.3,1.84-.14,1.98.26-.15.24-1.89.16-1.98-.26"/>
  <path class="cls-18" d="M244.12,442.06c-.47.3-.8,1.55-.14,1.94-.05-.7.7-1.18.14-1.94"/>
  <path class="cls-18" d="M244.86,442.7c-.39.11-.89,1.81-.52,2.11.5-.09.77-1.87.52-2.11"/>
  <path class="cls-18" d="M246.08,445.88c.68,1.55.09,1.08-.2,2.2-.53-.5-.42-1.81.2-2.2"/>
  <path class="cls-18" d="M247.04,446.94c-.22-.02-1.27,1.24-.93,1.59.54.18,1.04-1.41.93-1.59"/>
  <path class="cls-18" d="M243.19,448.58c.01-.09,2.08.13,2.07.51-.4.41-1.89-.03-2.07-.51"/>
  <path class="cls-18" d="M243.05,447.58c.12.66,2,1.22,2.34.96.02-.39-2.13-1.19-2.34-.96"/>
  <path class="cls-13" d="M271.98,435.97c.16.31.08.15-.15.45-.08.16.05.38.05.38,0,0-.93-.08-1.08.01-.13.09.06.73-.03,1.27-.17.99-.66.62-.32,1.21-.48.84-1.07,2.39-1.64,3.34-.14.1-.42.46-.29.63,0,0-.26.02-.35.19-.29,1.22-1.29,2.92-1.8,3.98-.39.26-1.51,1.29-.8,1.83-1.83.42,1.12,1.93.37.19,0,0,.56.08.83-.46.2-1.71.88-2.57,1.72-4.28.18-.03.42-.31.28-.48,0,0,.24-.11.34-.29.09-.18-.05-.4-.05-.4.21,0,.34-.42.33-.6.43-1.02,1.34-2.41,1.74-3.29.68-.05.09-.25.79-.96.39-.39,1.02-.62,1.01-.78,0-.17-.62-.88-.62-.88,0,0,.26-.02.34-.18.1-.36-.05-.36.28-.39-.01-1.41.21-1.37-.98-.5M263.54,452.84c-.04.07-.05.18,0,.27-.79-.51-.34,1.27-.41,1.46,0,0,1.23-.78,1.21-.88-.02-.12-.28-.31-.28-.31.66-.15-.21-1-.52-.53Z"/>
  <path class="cls-15" d="M272.21,436.02c.72.4.57.31.57-.41l-.57.41Z"/>
  <path class="cls-15" d="M271.98,436.44c-.18.34.43.65.59.3.18-.34-.41-.66-.59-.3"/>
  <path class="cls-15" d="M270.98,436.97c-.01.31.1,1.84-.53,1.98.31.35.18.18.54-.41.39-.91,0-1.54.88-1.56,0,.01-.69-.05-.89,0"/>
  <path class="cls-15" d="M271.04,439.39c-.08-.24,1.18-1.79,1.21-1.72-.1-.61-.27-.69-.82-.42.06.05-.42,1.87-.68,1.99l.29.14"/>
  <path class="cls-15" d="M272.4,437.71s-1.87,1.82-.96,1.75c-.26-.59,1.05-1.4,1.29-1.59,0-.07-.53-.72-.53-.72,0,0,.19.49.2.56"/>
  <path class="cls-15" d="M270.34,440.85c.42-.83.55-.89.61-1,.18-.26-.38-.59-.52-.26.02.22-1.19,2.53-1.41,2.97.08,1.28,1.22-1.64,1.33-1.71"/>
  <path class="cls-15" d="M268.63,443.02c-.13.24.48.55.6.3.12-.23-.44-.56-.6-.3"/>
  <path class="cls-15" d="M268.27,443.56c-.17.31.57.69.72.37.16-.3-.53-.69-.72-.37"/>
  <path class="cls-15" d="M268.05,444.16c-.13.24.48.55.6.3.12-.23-.44-.56-.6-.3"/>
  <path class="cls-15" d="M267.9,444.73s-1.07,2.11-1.45,2.85c-.37.27-1.46,1.2-.63,1.67.88.4.98-1.02.99-1.48.34-.89,2.19-3.62,1.09-3.03"/>
  <path class="cls-15" d="M265.2,449.62c-.2.37.53.74.71.36.19-.36-.5-.74-.71-.36"/>
  <path class="cls-15" d="M263.77,452.84c-.45.07.27.59.4.33.08-.14-.24-.36-.4-.33"/>
  <path class="cls-15" d="M263.27,453.24v1.04c.73-.48,1.32-.81,0-1.04"/>
  <path class="cls-13" d="M263.8,430.09c0-.57.75-1.13.75-1.13h-18.26s.75.56.75,1.13v13.59c0,.36.11.59.29.82.18.25.55.58.94.84,1.2.78,3.2,1.6,4.72,2.29,1.26.58,1.78.81,2.44,1.62.66-.81,1.17-1.05,2.44-1.62,1.52-.69,3.52-1.51,4.72-2.29.39-.25.76-.59.94-.84.18-.23.28-.46.28-.82v-13.59Z"/>
  <path class="cls-1" d="M247.48,437.78v-7.69c0-.44-.22-.7-.22-.7h16.34s-.22.26-.22.7v7.69s-7.95,2.41-7.95,2.41l-7.95-2.41Z"/>
  <path class="cls-6" d="M263.38,437.78l-4.92-.09h-6.06l-4.92.09v5.9c0,.3.31.99,2.08,1.88,2.93,1.46,5.19,2.14,5.87,2.98.68-.83,2.93-1.51,5.86-2.98,1.78-.88,2.08-1.58,2.08-1.88v-5.9Z"/>
  <path class="cls-13" d="M258.33,437.47c4.08-1.21,3.2-5.8-.09-7.86-.01,1.38,2.31,5.83-.58,6.1-.95.39-.63.18-1.38-.16-1.6,1.15-1.02-.68-2.46.41-3.83-.77-1.36-4.06-1.22-6.36-3.28,2.09-4.19,6.62-.09,7.86-1.1,2.13-1.07.93.99,2.06.96,1.03.95,3.86.18,4.92-.54.45-.9.49-.9,1.02,0,.45.34.53.9.83.71.38.68.88,1.74.88s1.03-.5,1.74-.88c.56-.29.9-.38.9-.83,0-.53-.36-.57-.9-1.02-.77-1.06-.78-3.9.18-4.92,2.05-1.14,2.09.06.99-2.07"/>
  <path class="cls-13" d="M255.42,429.82c-.57,1.66-.27,1.52-1.84.76.77,1.58.88,1.27-.76,1.84,1.65.57,1.52.27.76,1.84,1.58-.77,1.27-.88,1.84.76.57-1.66.28-1.52,1.84-.76-.77-1.58-.87-1.26.76-1.84-1.66-.57-1.52-.28-.76-1.84-1.58.77-1.27.88-1.84-.76"/>
  <path class="cls-13" d="M252.4,437.69c-3.51-1.53-1.8-1.16-4.92.09,2.84,1.55,1.92,1.61,4.92-.09"/>
  <path class="cls-13" d="M258.45,437.69c3.01,1.72,2.1,1.63,4.92.09-3.16-1.28-1.41-1.61-4.92-.09"/>
  <path class="cls-13" d="M253.12,439.55c-.8.78-.8.59,0,1.37.8-.78.8-.59,0-1.37"/>
  <path class="cls-13" d="M257.74,439.55c-.8.78-.8.59,0,1.37.8-.78.8-.59,0-1.37"/>
  <path class="cls-13" d="M252.94,443.54c0,.86-.08,1.32-.08,1.32,1.01.09,1.75-2.9.88-3.69-2.17-.64-.63.31-.8,2.37"/>
  <path class="cls-13" d="M257.11,441.17c-.87.79-.13,3.78.88,3.69-.26-.48.12-3.83.37-3.94l-1.25.25Z"/>
  <path class="cls-13" d="M249.99,441.21c-.5.12-.77.72-.51,1.17-.48-.17-1.03.19-1.06.71-.04.52.44.94.95.85-.7.96.96,1.88,1.4.78.1-.26.95.52,1.33-.15.34-.39.2-1.03-.27-1.24.49-.15.72-.77.44-1.2-.27-.45-.92-.5-1.27-.13.02-.52-.51-.92-1-.79"/>
  <path class="cls-13" d="M258.57,443.57c.09.82.76,1.52,1.59,1.71-.86-1.28.4-2.9,1.9-2.47-.81-1.57-3.71-1.21-3.48.76"/>
  <path class="cls-17" d="M251.24,433.54c-.09,2.14,1.95,3.15,3.32,2.4.72.49,1.01.47,1.72,0,.51.34.77.45,1.38.07,2.94.06,1.59-4.52.99-5.55,3.18,1.7,2.1,6.45-.79,6.79.72,1.93,1.12.99-.79,2.03-.94.88-1.08,4.6-.23,5.37.48.36.84.44.84.81.02.35-1.76,1.33-2.26,1.33-.51.01-2.27-1-2.26-1.33,0-.37.36-.44.84-.81,1.04-1.28.82-6.07-1.67-5.94,1.87-2.76-1.83-.58-2.23-4.99,0-1.76,2.08-3.25,2.08-3.25.12.25-.95,1.8-.95,3.07M254.34,445.25c-.56,0-.93.12-.93.29-.08.46,2.1.31.93-.29ZM256.52,445.25c-1.18.6,1,.75.92.29,0-.17-.36-.29-.92-.29Z"/>
  <path class="cls-17" d="M255.43,430.76c.35,1.04.2.97,1.17.48-.48.98-.55.83.48,1.18-1.04.35-.96.2-.48,1.17-.98-.49-.83-.54-1.18.48-.35-1.04-.2-.96-1.17-.48.49-.98.54-.83-.48-1.17,1.04-.35.96-.21.48-1.18.98.49.82.54,1.18-.48"/>
  <path class="cls-17" d="M251.46,437.74c-1.85,1.41-1.23,1.23-3.15.07,2.04-.92,1.03-1.15,3.15-.07"/>
  <path class="cls-17" d="M262.54,437.81c-2.28,1.21-.99,1.27-3.15-.07,2.12-1.09,1.12-.84,3.15.07"/>
  <path class="cls-17" d="M253.12,439.88c.4.36.39.36,0,.72-.4-.36-.41-.36,0-.72"/>
  <path class="cls-17" d="M257.74,439.88c.41.36.4.36,0,.72-.4-.36-.4-.36,0-.72"/>
  <path class="cls-17" d="M253.6,441.44c.25.34.21.9.21,1.67s-.59,1.08-.59,1.08c.24-2.05-.97-3.15.38-2.75"/>
  <path class="cls-17" d="M257.92,441.3c-.1.57-.29,1.02-.29,2.89-.74-.26-1.05-3.12.29-2.89"/>
  <path class="cls-17" d="M250.83,442.01c.08.33-.04.38-.34.31-1.86.95-.39-1.91.34-.31"/>
  <path class="cls-17" d="M251.77,443.18c-.29.17-.37.08-.4-.23-1.47-1.47,1.7-.96.4.23"/>
  <path class="cls-17" d="M250.94,444.44c-.26-.22-.19-.33.09-.45.95-1.86,1.44,1.32-.09.45"/>
  <path class="cls-17" d="M249.49,444.04c.13-.31.26-.28.46-.05,2.06.33-.81,1.78-.46.05"/>
  <path class="cls-17" d="M249.42,442.54c.34.03.35.16.19.42.33,2.06-1.94-.22-.19-.42"/>
  <path class="cls-17" d="M250.49,442.63c.79-.01.79,1.23,0,1.21-.79.01-.79-1.23,0-1.21"/>
  <path class="cls-17" d="M261.16,442.42c-1.01.19-1.73,1.09-1.63,2.13-1.52-1.13.12-3.16,1.63-2.13"/>
</svg>