<?xml version="1.0" encoding="UTF-8"?>
<svg id="Layer_1" data-name="Layer 1" xmlns="http://www.w3.org/2000/svg" viewBox="0 0 890.31 717.97">
  <defs>
    <style>
      .cls-1 {
        fill: #1c76bc;
      }

      .cls-2 {
        fill: #231f20;
      }

      .cls-3 {
        fill: #f06426;
      }

      .cls-4 {
        fill: #30a9e0;
      }

      .cls-5 {
        fill: #b13f25;
      }
    </style>
  </defs>
  <path class="cls-3" d="M354.42,469.01c28.03,11.27,58.64,17.49,90.7,17.49,26.49,0,51.98-4.25,75.85-12.07l-166.54-330.98v325.56Z"/>
  <path class="cls-5" d="M201.88,243.25c0,67.36,27.38,128.32,71.62,172.38V70.87c-44.24,44.06-71.62,105.02-71.62,172.38"/>
  <path class="cls-3" d="M535.8,17.48C507.77,6.21,477.18,0,445.12,0c-26.49,0-51.98,4.25-75.86,12.08l166.54,330.97V17.48Z"/>
  <path class="cls-4" d="M616.75,171.53h60.81c-11.85-38.5-32.97-72.93-60.81-100.65v100.65Z"/>
  <path class="cls-1" d="M616.75,350.63v64.99c44.24-44.05,71.63-105.01,71.63-172.37,0-5.42-.24-10.8-.59-16.13-.16-2.48-.47-4.91-.7-7.37h-70.34v130.87Z"/>
  <g>
    <path class="cls-2" d="M0,632.33v-102.09h27.36c12.75,22.92,36.32,64.26,41.01,75.39h.28c-1.15-10.65-1.13-28.38-1.13-45.13v-30.25h20.01v102.09h-25.95c-10.97-19.95-37.08-67.44-42.14-79.23h-.28c.74,8.93.98,29.9.98,48.18v31.05H0Z"/>
    <path class="cls-2" d="M205.76,580.94c0,28.41-17.06,52.87-50.21,52.87s-48.81-23.28-48.81-52.52,18.52-52.52,50.23-52.52c29.86,0,48.79,20.92,48.79,52.17ZM129.54,580.84c0,19.93,8.75,35.01,26.84,35.01,19.63,0,26.58-16.44,26.58-34.63,0-19.31-7.91-34.49-26.94-34.49s-26.49,14.24-26.49,34.12Z"/>
    <path class="cls-2" d="M246.63,591.47v40.86h-21.57v-102.09h44.86c22.26,0,34.24,12.26,34.24,28.03,0,13.7-7.46,21.12-14.83,24.15,5.06,1.87,12.69,7.13,12.69,25.4v5.04c0,6.86.06,14.68,1.46,19.46h-20.92c-1.79-4.44-2.13-12.08-2.13-22.92v-1.49c0-11.16-2.82-16.45-19.27-16.45h-14.52ZM246.63,573.9h18.51c12.09,0,16.75-4.6,16.75-13.13s-5.42-12.95-16.22-12.95h-19.03v26.08Z"/>
    <path class="cls-2" d="M323.81,530.24h40.48c29.73,0,49.17,19.58,49.17,49.76s-18.86,52.32-50.1,52.32h-39.55v-102.09ZM345.88,614.5h16.55c19.57,0,28.22-14.56,28.22-34.44,0-16.68-8.1-31.98-28.09-31.98h-16.68v66.42Z"/>
    <path class="cls-2" d="M447.73,602.41c2.33,10.25,9.68,14.75,21.5,14.75s16.82-4.65,16.82-12.13c0-8.31-4.92-11.91-22.38-15.98-27.78-6.52-34.65-16.63-34.65-30.41,0-17.79,13.31-29.88,37.48-29.88,27.1,0,37.9,14.57,39.37,29.5h-22.24c-1.07-6.28-4.54-13.11-17.7-13.11-8.96,0-14.37,3.7-14.37,10.95s4.33,9.98,20.83,13.8c29.69,6.99,36.2,18.04,36.2,32.43,0,18.64-14.1,31.43-41.09,31.43s-39.56-12.76-42.01-31.37h22.24Z"/>
    <path class="cls-2" d="M546.31,548.33h-31.02v-18.09h84.01v18.09h-30.9v83.99h-22.09v-83.99Z"/>
    <path class="cls-2" d="M683.22,588.3h-48.82v25.94h53.85l-2.62,18.09h-72.66v-102.09h72.39v18.09h-50.96v21.87h48.82v18.09Z"/>
    <path class="cls-2" d="M725.61,591.47v40.86h-21.57v-102.09h44.86c22.26,0,34.24,12.26,34.24,28.03,0,13.7-7.46,21.12-14.83,24.15,5.06,1.87,12.68,7.13,12.68,25.4v5.04c0,6.86.06,14.68,1.46,19.46h-20.92c-1.79-4.44-2.13-12.08-2.13-22.92v-1.49c0-11.16-2.82-16.45-19.27-16.45h-14.52ZM725.61,573.9h18.51c12.09,0,16.75-4.6,16.75-13.13s-5.42-12.95-16.22-12.95h-19.03v26.08Z"/>
    <path class="cls-2" d="M802.79,632.33v-102.09h27.36c12.75,22.92,36.32,64.26,41.01,75.39h.28c-1.15-10.65-1.13-28.38-1.13-45.13v-30.25h20.01v102.09h-25.95c-10.97-19.95-37.08-67.44-42.14-79.23h-.28c.74,8.93.98,29.9.98,48.18v31.05h-20.14Z"/>
  </g>
  <g>
    <path class="cls-2" d="M155.84,670.16h3.78v20.49h28.08v-20.49h3.78v47.13h-3.78v-23.17h-28.08v23.17h-3.78v-47.13Z"/>
    <path class="cls-2" d="M251.01,693.39c0,12.87-6.89,24.57-21.45,24.57-13.3,0-21.04-10.71-21.04-24.24s7.5-24.24,21.51-24.24c12.95,0,20.97,10.16,20.97,23.91ZM212.57,693.53c0,10.8,5.95,20.97,17.2,20.97,12.12,0,17.2-9.92,17.2-21.03s-5.75-20.5-17.07-20.5c-12.04,0-17.33,9.96-17.33,20.57Z"/>
    <path class="cls-2" d="M276.52,673.63h-15.79v-3.47h35.49v3.47h-15.86v43.66h-3.84v-43.66Z"/>
    <path class="cls-2" d="M372.63,687.02l-11.73,18.15c-5.72,8.79-9.82,12.8-17.42,12.8s-12.25-6.14-12.25-12.01,2.67-10.11,12.6-15.47c6.82-4.38,9.43-6.29,9.43-10.6,0-3.68-2.34-7.22-6.82-7.22-4.21,0-7.15,2.61-7.15,7.49,0,3.03,2.09,5.84,6.1,9.65l27.9,27.49h-5.21l-25.44-25.1c-4.34-4.15-6.91-7.25-6.91-12.03,0-5.36,3.6-10.68,10.83-10.68,6.11,0,10.3,4.6,10.3,10.39,0,4.61-2.54,7.59-10.83,12.68-9.42,5.32-11.04,8.62-11.04,13.1,0,4.81,4.13,8.89,8.5,8.89,5.44,0,9.04-1.9,15.1-11.56l10-15.99h4.04Z"/>
    <path class="cls-2" d="M417.43,670.16v47.13h-3.78v-47.13h3.78Z"/>
    <path class="cls-2" d="M472.94,704.66c-2.21,7.5-7.76,13.17-17.76,13.17-13.56,0-20.7-10.77-20.7-24.04s7.01-24.31,20.78-24.31c10.22,0,16.21,5.69,17.75,13.57h-3.78c-2.13-6.07-6.07-10.1-14.18-10.1-11.64,0-16.52,10.64-16.52,20.77s4.8,20.64,16.79,20.64c7.65,0,11.52-3.98,13.84-9.71h3.78Z"/>
    <path class="cls-2" d="M517.6,694.19h-24v19.63h26.29l-.55,3.47h-29.51v-47.13h28.98v3.47h-25.21v17.08h24v3.47Z"/>
    <path class="cls-2" d="M569.76,673.63h-15.79v-3.47h35.49v3.47h-15.86v43.66h-3.84v-43.66Z"/>
    <path class="cls-2" d="M607.61,670.16v28.54c0,12.45,7.02,15.67,13.65,15.67,7.83,0,13.64-3.3,13.64-15.67v-28.54h3.84v28.33c0,14.77-7.84,19.34-17.62,19.34s-17.42-5.03-17.42-18.75v-28.93h3.91Z"/>
    <path class="cls-2" d="M658.6,670.16h16.52c9.07,0,13.91,4.8,13.91,11.59,0,5.58-3.35,9.21-7.24,10.3,3.36.95,8.92,4.25,8.92,11.63,0,9.4-7.05,13.61-15.31,13.61h-16.8v-47.13ZM673.9,690.39c8.08,0,11.15-3.01,11.15-8.42,0-4.62-3.22-8.35-9.76-8.35h-12.99v16.77h11.6ZM662.3,713.83h13.18c6.18,0,11.31-3.08,11.31-9.96,0-5.95-3.81-10.02-13.22-10.02h-11.27v19.97Z"/>
    <path class="cls-2" d="M708.44,704.61c1.41,6.23,5.56,9.9,13.26,9.9,8.55,0,11.83-4.26,11.83-9.34s-2.35-8.55-12.67-11.1c-10.03-2.5-14.31-5.76-14.31-12.56,0-6.24,4.55-12.02,14.67-12.02s14.8,6.34,15.41,12.09h-3.91c-1.07-5-4.33-8.63-11.71-8.63-6.74,0-10.42,3.13-10.42,8.34s3.07,7.15,11.74,9.29c13.27,3.3,15.25,8.61,15.25,14.29,0,6.97-5.08,12.96-16.02,12.96-11.79,0-16.14-6.85-17.02-13.22h3.91Z"/>
  </g>
</svg>